<?xml version="1.0" encoding="utf-8"?>
<!-- Generator: Adobe Illustrator 28.1.0, SVG Export Plug-In . SVG Version: 6.00 Build 0)  -->
<svg version="1.1" id="Layer_1" xmlns="http://www.w3.org/2000/svg" xmlns:xlink="http://www.w3.org/1999/xlink" x="0px" y="0px"
	 width="1935.6px" height="469.7px" viewBox="0 0 1935.6 469.7" style="enable-background:new 0 0 1935.6 469.7;"
	 xml:space="preserve">
<g>
	
		<image style="overflow:visible;enable-background:new    ;" width="1024" height="631" xlink:href="uncle_tony.png"  transform="matrix(0.4788 0 0 0.4788 1525.0543 -27.0012)">
	</image>
	
		<image style="overflow:visible;enable-background:new    ;" width="1024" height="466" xlink:href="tony_drinking.png"  transform="matrix(0.5 0 0 0.5 856.0271 33.8712)">
	</image>
	
		<image style="overflow:visible;enable-background:new    ;" width="1024" height="612" xlink:href="tony_peaking.png"  transform="matrix(0.4328 0 0 0.4328 261.0613 0)">
	</image>
	<g>
		<path d="M124.3,279.9c-0.6,0-1.1-0.1-1.7-0.1c0-2.8,0-5.6,0.1-8.5c0.1-8.8,0.5-17.6,0.3-26.4c-0.2-9.7-1-19.6-3.9-28.9
			c-0.5-1.5-2-2.4-3.5-2c-1.4,0.4-2.4,2-2,3.5c2.5,8.1,3.3,16,3.6,24.4c0.3,8.7,0,17.5-0.2,26.2c-0.1,3.8-0.1,7.6-0.1,11.4
			c-9.3-0.4-18.6-0.5-27.8-1.7c1.5-11.2,3.1-22.5,4.7-33.7c1.4-10.2,2.7-20.4,3.8-30.7c0.2-1.5-1.4-2.8-2.8-2.8
			c-1.7,0-2.7,1.3-2.8,2.8c-1.9,17.9-4.5,35.8-7,53.7c-0.5,3.3-0.9,6.6-1.3,9.9c-0.6-0.1-1.1-0.2-1.7-0.3c-1.5-0.3-3.1,0.4-3.5,2
			c-0.4,1.4,0.5,3.2,2,3.5c0.8,0.2,1.7,0.3,2.5,0.5c-1.7,13-3.1,26-3.9,39c-0.6,10.2-0.9,20.4-0.6,30.6c0,1.5,1.3,2.8,2.8,2.8
			s2.9-1.3,2.8-2.8c-0.5-18.2,0.8-36.3,2.7-54.3c0.5-4.8,1.1-9.6,1.7-14.4c9.5,1.2,19,1.4,28.6,1.8c0,3.4,0,6.9-0.1,10.3
			c-0.2,9.8-0.7,19.7-1.2,29.5c-0.3,4.7-0.7,8.8-1.8,13.4c-1.1,4.6-2.7,9.1-4.5,13.4c-0.6,1.4-0.4,3,1,3.9c1.2,0.7,3.3,0.4,3.9-1
			c1.8-4.2,3.4-8.4,4.6-12.8c1.1-4.2,1.8-8.4,2.2-12.7c0.5-4.8,0.6-9.6,0.8-14.4c0.2-5,0.4-10,0.6-15c0.2-4.8,0.2-9.6,0.2-14.4
			c0.6,0,1.1,0.1,1.7,0.1c1.5,0.1,2.8-1.4,2.8-2.8C127.2,281.1,125.9,280,124.3,279.9z"/>
		<path d="M180,260.1c-6.6,1.5-13,4.2-19.1,7.2c-2.6,1.3-5.2,2.7-7.7,4.2c-1.8,1.1-3.6,2.2-5.1,3.7c-2.8,2.7-4.8,6.3-6.2,9.8
			c-1.4,3.6-2,7.6-2,11.4c0.2,8.3,3.3,16.4,7.6,23.5c4.6,7.6,10.7,14.4,17.6,20.1c6.5,5.3,13.7,9.9,21.7,12.5c1.6,0.5,3.3,0.9,5,1.2
			c1.5,0.3,3.1-0.4,3.5-2c0.4-1.4-0.5-3.2-2-3.5c-1.7-0.3-3.3-0.7-4.9-1.2c-0.8-0.3-1.6-0.6-2.5-0.9c-0.3-0.1-0.7-0.3-1-0.4
			c-0.1,0-0.2-0.1-0.3-0.1c-0.2-0.1-0.5-0.2-0.7-0.3c-3.5-1.6-6.9-3.6-10.1-5.8c-0.9-0.6-1.7-1.2-2.5-1.8c-0.1-0.1-0.3-0.2-0.4-0.3
			c-0.1,0-0.2-0.2-0.3-0.3c-0.4-0.3-0.8-0.7-1.2-1c-1.6-1.3-3.2-2.7-4.7-4.2c-1.5-1.4-3-2.9-4.4-4.5c-0.7-0.8-1.4-1.6-2.1-2.5
			c-0.3-0.4-0.6-0.8-0.9-1.2c-0.2-0.2-0.3-0.4-0.5-0.6c0,0,0,0-0.1-0.1s-0.2-0.2-0.2-0.2c-2.5-3.3-4.7-6.7-6.5-10.4
			c-0.4-0.9-0.8-1.8-1.2-2.7c0-0.1,0-0.1-0.1-0.2l0,0c-0.1-0.2-0.2-0.5-0.3-0.7c-0.2-0.5-0.4-0.9-0.5-1.4c-0.6-1.8-1.2-3.5-1.5-5.4
			c-0.1-0.4-0.2-0.9-0.3-1.3c0-0.2-0.1-0.5-0.1-0.8c0-0.1-0.1-0.4-0.1-0.5s0-0.3,0-0.3c0-0.2,0-0.4-0.1-0.6c0-0.5-0.1-0.9-0.1-1.4
			c0-0.9,0-1.8,0-2.6c0-0.4,0-0.8,0.1-1.3c0-0.2,0-0.4,0.1-0.6c0-0.1,0-0.2,0-0.3l0,0c0.3-1.7,0.7-3.4,1.2-5
			c0.1-0.2,0.1-0.4,0.2-0.6c0,0,0.1-0.2,0.1-0.3c0.1-0.1,0.1-0.3,0.2-0.4c0.1-0.2,0.2-0.5,0.3-0.7c0.4-0.9,0.9-1.7,1.4-2.5
			c0.2-0.4,0.5-0.8,0.7-1.1c0.1-0.2,0.3-0.4,0.4-0.6c0.1-0.1,0.1-0.2,0.2-0.2c0.5-0.6,0.9-1.2,1.5-1.7c0.2-0.2,0.5-0.4,0.7-0.6
			c0,0,0,0-0.1,0l0.1-0.1c0.1-0.1,0.2-0.1,0.2-0.1c0.1-0.1,0.1-0.1,0.2-0.2c1.9-1.3,3.9-2.5,5.9-3.6c2.6-1.5,5.4-2.8,8.1-4.1
			c0.8-0.3,1.5-0.7,2.3-1l0,0l0,0c0.2-0.1,0.4-0.1,0.5-0.2c0.4-0.2,0.8-0.3,1.2-0.5c1.5-0.6,3.1-1.2,4.6-1.7c2.8-1,5.7-1.7,8.7-2.2
			c0.1,0,0.1,0,0.2,0c0.1,0,0.1,0,0.2,0c0.3,0,0.7-0.1,1-0.1c0.6,0,1.2-0.1,1.8-0.1c0.5,0,1.2,0.2,1.6,0.1c-0.2,0-0.6-0.1-0.2,0
			c0.1,0,0.1,0,0.2,0c0,0,0,0,0.1,0c0,0,0,0-0.1,0c0.1,0,0.1,0,0.2,0c0.3,0.1,0.5,0.1,0.8,0.2c0.2,0.1,0.4,0.1,0.6,0.2
			c0.1,0,0.1,0,0.2,0.1c0.2,0.1,0.4,0.2,0.6,0.4l0,0l0,0c0.1,0.1,0.2,0.2,0.3,0.3c0-0.1-0.1-0.1-0.1-0.1s0,0.1,0.1,0.1l0.1,0.1
			c0.2,0.2,0,0.1-0.1-0.1c0,0.1,0.1,0.1,0.1,0.1c0.1,0.1,0.2,0.3,0.2,0.5c0,0.1,0.1,0.1,0.1,0.2c0.1,0.2,0.1,0.5,0.2,0.7
			c0,0.1,0,0.2,0,0.3c0,0.6,0,1.2-0.1,1.8l0,0c0,0.1,0,0.2-0.1,0.4c-0.1,0.4-0.1,0.7-0.2,1.1c-0.1,0.3-0.2,0.6-0.3,0.9
			c0,0.1,0,0.1,0,0.2c-0.1,0.1-0.1,0.3-0.2,0.4c-0.3,0.7-0.7,1.3-1.1,1.9c0,0-0.1,0.1-0.1,0.2c-0.1,0.1-0.2,0.2-0.2,0.3
			c-0.3,0.3-0.5,0.6-0.8,0.9c-0.6,0.6-1.2,1.2-1.8,1.8c-0.3,0.3-0.7,0.6-1,0.9c-0.2,0.1-0.3,0.3-0.5,0.4c0.4-0.4,0,0-0.2,0.2
			c-3.2,2.4-6.7,4.3-10.4,6c-0.5,0.2-0.9,0.4-1.4,0.6c-0.1,0-0.3,0.2-0.4,0.2c-0.2,0.1-0.4,0.2-0.6,0.3c-1,0.4-2,0.8-3,1.2
			c-1.9,0.7-3.8,1.3-5.8,1.9c-1.8,0.5-3.7,1-5.6,1.4c-0.8,0.2-1.7,0.3-2.5,0.5c-0.2,0-0.4,0.1-0.5,0.1l0,0c-0.4,0-0.8,0.1-1.2,0.1
			c-1.3,0.1-2.6,0.2-3.9,0.1c-1.5-0.1-2.8,1.4-2.8,2.8c0,1.6,1.3,2.7,2.8,2.8c3.3,0.2,6.7-0.3,10-1c4.1-0.8,8-2,11.9-3.5
			c4.2-1.6,8.3-3.4,12.1-5.7c3.4-2,6.8-4.4,9.4-7.4c2.5-2.8,3.9-6,4.3-9.7c0.3-2.7-0.3-5.6-2.3-7.7C192,257.9,184.9,259,180,260.1z
			 M185,345.7C185,345.8,185,345.8,185,345.7L185,345.7z M184.9,345.7c0,0-0.1,0-0.1-0.1C184.9,345.7,184.9,345.7,184.9,345.7z"/>
		<path d="M152.7,278.7L152.7,278.7c0.3-0.1,0.3-0.2,0.2-0.2C152.9,278.6,152.8,278.6,152.7,278.7
			C152.8,278.7,152.8,278.7,152.7,278.7z"/>
		<path d="M191.9,266.1L191.9,266.1L191.9,266.1L191.9,266.1z"/>
		<path d="M189.3,264.9L189.3,264.9L189.3,264.9L189.3,264.9z"/>
		<path d="M225.7,250.6c-0.6-1.4-2.7-1.8-3.9-1c-1.4,0.9-1.7,2.4-1,3.9c1,2.2,2.1,4.4,3.1,6.7c0.1,0.2,0.2,0.4,0.3,0.6
			c0,0,0.2,0.5,0.2,0.6c0.2,0.5,0.4,1.1,0.6,1.6c0.4,1.1,0.8,2.3,1.2,3.5c0.4,1.4,2,2.5,3.5,2c1.4-0.5,2.4-2,2-3.5
			C230.2,260,227.9,255.3,225.7,250.6z"/>
		<path d="M281.3,267.4c-4.2-0.2-8.5-0.1-12.7,0.3c-5.1,0.4-10.3,1.1-15.1,3c-4,1.6-8.4,4.2-9.3,8.8c-0.8,4.4,1.8,8.9,4,12.5
			c2.8,4.6,6.1,8.9,9.3,13.3c1.4,2,2.8,4.1,4.1,6.2c0.5,0.9,1,1.8,1.4,2.7c0,0.1,0.1,0.2,0.1,0.3c0,0,0,0,0,0.1s0.1,0.2,0.1,0.3
			c0.1,0.4,0.3,0.8,0.4,1.3c0.3,1.1,0.5,2.2,0.8,3.3c0.1,0.5,0.2,1,0.3,1.5c0,0.3,0.1,0.5,0.1,0.8c0,0.1,0.1,0.4,0.1,0.5
			c0.3,2.3,0.5,4.6,0.5,6.9c0,2.4-0.1,4.8-0.4,7.1c0,0,0,0,0,0.1s0,0.2,0,0.2c0,0.3-0.1,0.6-0.1,0.8c-0.1,0.6-0.2,1.2-0.3,1.7
			c-0.2,1.1-0.5,2.2-0.8,3.3c-0.2,0.5-0.3,1-0.5,1.5c-0.1,0.2-0.2,0.5-0.3,0.7c0,0.1-0.1,0.2-0.1,0.3c-0.5,0.9-0.9,1.9-1.4,2.7
			c-0.2,0.4-0.5,0.8-0.8,1.2c-0.1,0.2-0.6,0.8-0.1,0.1c-0.2,0.2-0.3,0.4-0.5,0.6c-0.6,0.7-1.3,1.4-2,2l0,0c0,0-0.1,0-0.1,0.1
			c-0.2,0.1-0.4,0.3-0.6,0.4c-0.4,0.2-0.8,0.5-1.2,0.7c-0.2,0.1-0.4,0.2-0.6,0.3c0.7-0.4,0.1,0-0.1,0c-0.5,0.2-1,0.3-1.5,0.5
			c-0.2,0.1-0.5,0.1-0.7,0.2c-0.2,0-1,0.1-0.2,0c-0.5,0-1,0.1-1.6,0.1c-0.5,0-1.1,0-1.6,0c-0.3,0-0.6-0.1-0.9-0.1l0,0
			c-0.2,0-0.4-0.1-0.6-0.1c-1.3-0.2-2.5-0.6-3.8-1c-1.5-0.5-3.1,0.6-3.5,2c-0.4,1.5,0.5,3,2,3.5c4.6,1.5,9.9,2.1,14.5,0.2
			c4.2-1.7,7.4-5,9.4-8.9c4.5-8.6,4.9-19.2,3.5-28.6c-0.6-4.4-1.7-8.4-3.9-12.3c-2.6-4.5-5.9-8.6-8.9-12.9c-1.5-2.2-3.1-4.4-4.5-6.6
			c-0.6-1-1.2-2-1.8-3.1c-0.2-0.5-0.5-0.9-0.7-1.4c0-0.1-0.1-0.1-0.1-0.2c-0.1-0.2-0.2-0.5-0.3-0.7c-0.1-0.4-0.3-0.8-0.4-1.3
			c-0.1-0.2-0.1-0.4-0.1-0.6v-0.1c0-0.3,0-0.7,0-1c0.1-0.2,0.1-0.4,0.2-0.6v-0.1c0.1-0.1,0.2-0.3,0.3-0.5c0.1-0.1,0.2-0.3,0.3-0.4
			s0.1-0.1,0.2-0.2c0.3-0.3,0.6-0.6,0.9-0.9c0,0,0,0,0.1-0.1l0,0c0.2-0.1,0.4-0.3,0.7-0.4c0.4-0.3,0.8-0.5,1.3-0.7
			c0.2-0.1,0.5-0.2,0.7-0.3c0.1-0.1,0.4-0.2,0.5-0.2c1-0.4,2-0.8,3.1-1.1c1.2-0.3,2.4-0.6,3.6-0.9c0.6-0.1,1.2-0.2,1.8-0.3
			c0.3-0.1,0.6-0.1,0.9-0.1c0.2,0,0.3,0,0.5-0.1c0,0,0.2,0,0.3,0c0.2,0,0.6-0.1,0.6-0.1c0.3,0,0.6-0.1,0.9-0.1
			c0.7-0.1,1.3-0.1,2-0.2c1.2-0.1,2.5-0.2,3.7-0.2c2.2-0.1,4.3-0.1,6.5-0.1c0.8,0,1.7,0,2.5,0.1c1.5,0.1,2.8-1.4,2.8-2.8
			C284.1,268.6,282.8,267.4,281.3,267.4z"/>
		<path d="M339.8,321.5c-0.3,0-0.4,0.1-0.3,0.1C339.6,321.5,339.7,321.5,339.8,321.5L339.8,321.5z"/>
		<path d="M339.3,321.7C339.3,321.7,339.4,321.6,339.3,321.7c-0.1-0.1-0.2-0.1-0.3,0C339.1,321.7,339.2,321.7,339.3,321.7
			L339.3,321.7z"/>
		<path d="M377.4,331.6c-0.2-4-0.2-8-0.4-12c-0.3-4.4-0.7-8.8-1.9-13c-1-3.7-2.7-7.5-5.6-10.1c-0.7-0.7-1.6-1.3-2.4-1.8
			c-1.2-0.7-3.3-0.4-3.9,1c-0.9,2.1-2.4,3.9-3.7,5.7c-0.2,0.3-0.5,0.6-0.7,0.9c-0.1,0.1-0.5,0.7,0,0.1c-0.1,0.2-0.2,0.3-0.4,0.5
			c-0.6,0.7-1.1,1.4-1.7,2.2c-1.1,1.4-2.3,2.8-3.5,4.1c-2.5,2.8-5,5.5-7.8,8c-0.6,0.5-1.2,1.1-1.8,1.6c-0.3,0.2-0.6,0.5-0.8,0.7
			c-0.1,0.1-0.2,0.1-0.3,0.2c0.7-0.5,0,0-0.1,0.1c-0.5,0.4-1,0.7-1.5,1c-0.2,0.1-0.5,0.3-0.7,0.4c-0.1,0-0.2,0.1-0.3,0.1
			c0,0,0,0,0.1,0h-0.1c0,0,0,0-0.1,0c-0.1,0.1-0.2,0.1-0.2,0.1c-0.1,0-0.1,0-0.1,0.1c0,0,0,0,0.1,0h-0.1c-0.1,0-0.2,0-0.3,0.1
			c-0.2,0.1-0.2,0-0.1,0l0,0l0,0c0,0,0.1,0,0.1-0.1c-0.2,0-0.3,0-0.3,0c-0.2,0-0.4-0.1-0.5-0.1s-0.7-0.2-0.7-0.2
			c-0.4-0.2-0.8-0.5-1.2-0.7c-0.1,0-0.1-0.1-0.1-0.1l-0.1-0.1c-0.2-0.2-0.4-0.4-0.6-0.6c-0.8-0.8-1.1-1.4-1.8-2.6
			c0-0.1-0.1-0.1-0.1-0.2c0,0,0-0.1-0.1-0.2c-0.1-0.2-0.1-0.4-0.2-0.7c-0.1-0.2-0.1-0.4-0.2-0.7c0,0-0.1-0.4-0.1-0.5
			c0-0.5-0.1-1,0-1.4c0,0,0-0.1,0-0.2c0,0,0,0,0-0.1s0-0.2,0.1-0.3c0.1-0.7,0.4-1.3,0.6-2l0,0c0.1-0.2,0.1-0.3,0.2-0.5
			c0.2-0.4,0.4-0.8,0.6-1.1c0.2-0.3,0.4-0.6,0.6-1c0.1-0.1,0.5-0.7,0.5-0.7c0.5-0.6,1-1.2,1.6-1.8c0.6-0.6,1.2-1.2,1.9-1.8
			c0.3-0.2,0.6-0.5,0.9-0.7c0.2-0.1,0.4-0.3,0.5-0.4c0.1,0,0.3-0.2,0.4-0.3c3.2-2.4,6.7-4.5,10.3-6.2c1-0.5,2.1-1,3.1-1.5
			c0.2-0.1,0.3-0.1,0.5-0.2c-0.2,0.1,0.5-0.2,0.6-0.3c0.4-0.2,0.9-0.4,1.3-0.5c2-0.8,4-1.5,6.1-2.1c1.8-0.5,3.6-1,5.5-1.3
			c0.3,0,1.6-0.3,0.6-0.1c0.4-0.1,0.8-0.1,1.1-0.1c0.7-0.1,1.4-0.1,2.1-0.1c1.5,0,2.8-1.3,2.8-2.8c0-1.6-1.3-2.8-2.8-2.8
			c-3.3-0.1-6.6,0.7-9.7,1.5c-4.1,1.1-8.1,2.6-12,4.4c-7.6,3.4-15.4,8.1-20.2,14.9c-2.3,3.3-3.5,7.2-2.8,11.2
			c0.9,5.4,5.4,10.4,11,10.9c3,0.3,5.7-1.8,7.9-3.5c2.9-2.2,5.4-4.9,7.9-7.5c2.7-2.9,5.3-5.9,7.8-9c1.5-1.8,2.9-3.7,4.2-5.7
			c0.1,0.1,0.2,0.3,0.4,0.4c-0.5-0.6,0,0.1,0.1,0.2c0.5,0.7,0.9,1.4,1.2,2.1c0.1,0.2,0.2,0.4,0.3,0.6c0,0,0.1,0.2,0.1,0.3
			c0.2,0.4,0.3,0.8,0.5,1.3c0.6,1.9,1.1,3.8,1.4,5.7c0.1,0.5,0.2,1,0.2,1.5c0,0.2,0,0.3,0.1,0.5c0,0.1,0.1,0.4,0.1,0.5
			c0.1,1.1,0.2,2.2,0.3,3.2c0.3,4,0.4,8,0.5,11.9c0.1,4.3,0.5,8.5,0.8,12.8c0.6,11,0.4,21.6-3.4,32c-3.7,10.2-11.1,19.1-18.7,26.9
			c-9,9.2-18.9,17.2-29.5,24.4c-1.3,0.9-1.8,2.5-1,3.9c0.7,1.3,2.6,1.9,3.9,1c9.9-6.7,19.3-14.1,27.9-22.4
			c4.2-4.2,8.3-8.5,11.9-13.2c3.7-4.7,7.1-9.7,9.5-15.1c4.7-10.6,5.8-22.2,5.4-33.7C378.1,341.4,377.6,336.5,377.4,331.6z
			 M333,313.3c0-0.1,0-0.2,0-0.3C333,313.2,333,313.3,333,313.3z"/>
		<path d="M422.8,296.8c-3.5-9.3-17.3-10.8-24.2-4.6c-1.7,1.5-2.9,3.4-3.9,5.5c-0.7-1.1-1.4-2.2-2.2-3.3c-0.9-1.2-3-1-4,0
			c-1.2,1.2-0.9,2.8,0,4c1.7,2.2,2.9,4.9,3.8,7.7c-0.6,3.7-0.8,7.4-0.7,11.1c0.1,4.5,0.6,9.2,1.7,13.6c0.3,1.4,1.8,2.2,3.1,2
			c1.5-0.2,2.3-1.3,2.5-2.8c0.7-8,1.2-16.3-0.7-24c0.3-1.4,0.6-2.8,1.1-4.2c0.1-0.4,0.3-0.7,0.4-1.1c0,0,0,0,0-0.1c0,0,0,0,0-0.1
			c0.1-0.2,0.2-0.4,0.3-0.6c0.4-0.8,0.8-1.6,1.4-2.3c0.1-0.1,0.4-0.5,0.2-0.3c0.1-0.1,0.1-0.2,0.2-0.3c0.3-0.3,0.5-0.6,0.8-0.8
			c0.1-0.1,0.3-0.2,0.4-0.4l0,0l0,0c0.4-0.3,0.8-0.5,1.3-0.8c0.1-0.1,0.2-0.1,0.3-0.2c0.1,0,0.3-0.1,0.4-0.2
			c0.4-0.2,0.9-0.3,1.3-0.4c0.2-0.1,0.4-0.1,0.7-0.1c0.1,0,0.2,0,0.3-0.1c0.5-0.1,1-0.1,1.5-0.1c0.6,0,1.1,0,1.7,0.1
			c0.1,0,0.3,0,0.4,0c0.2,0,0.5,0.1,0.7,0.1c0.5,0.1,1.1,0.2,1.6,0.4c0.2,0.1,0.4,0.2,0.7,0.2l0,0c0.1,0.1,0.2,0.1,0.3,0.2
			c0.5,0.2,0.9,0.5,1.3,0.8c0.1,0,0.3,0.2,0.3,0.3c0.2,0.1,0.3,0.3,0.4,0.4c0.2,0.2,0.3,0.3,0.4,0.5l0,0c0.1,0.1,0.1,0.2,0.2,0.2
			c0.1,0.2,0.2,0.4,0.3,0.6c0.1,0.1,0.1,0.2,0.2,0.3c0.5,1.4,1.9,2.4,3.5,2C422.2,299.9,423.3,298.2,422.8,296.8z"/>
		<path d="M438.8,303.4c0-0.1-0.1-0.2-0.1-0.3l0,0C438.7,303.3,438.8,303.4,438.8,303.4z"/>
		<path d="M460.7,339.4c-0.8,0.5-1.7,1-2.6,1.4c-0.1,0-0.1,0-0.2,0.1c-0.2,0.1-0.5,0.2-0.7,0.2c-0.5,0.2-0.9,0.3-1.4,0.4
			c-0.4,0.1-0.8,0.2-1.2,0.2h-0.1c-0.3,0-0.5,0-0.8,0.1c-0.9,0-1.7,0-2.6-0.1c-0.1,0-0.1,0-0.1,0l0,0c-0.2,0-0.4-0.1-0.6-0.1
			c-0.5-0.1-0.9-0.2-1.4-0.3c-0.9-0.2-1.7-0.6-2.6-0.9c-0.1,0-0.2-0.1-0.3-0.1c-0.2-0.1-0.4-0.2-0.6-0.3c-0.5-0.2-0.9-0.5-1.3-0.7
			c-0.9-0.5-1.7-1-2.5-1.6c-0.2-0.1-0.4-0.3-0.5-0.4c-0.1,0-0.3-0.2-0.4-0.3c-0.4-0.3-0.7-0.6-1.1-0.9c-0.8-0.6-1.5-1.3-2.2-2
			s-1.4-1.5-2.1-2.3c-0.3-0.4-0.6-0.7-0.9-1.1c-0.1-0.1-0.1-0.2-0.2-0.3c-0.2-0.2-0.4-0.5-0.5-0.8c-1.2-1.7-2.3-3.5-3.2-5.4
			c-0.2-0.4-0.4-0.9-0.6-1.3c-0.1-0.2-0.2-0.4-0.2-0.5s-0.1-0.2-0.1-0.4c-0.4-0.9-0.7-1.9-1-2.8s-0.5-1.9-0.7-2.9
			c-0.1-0.4-0.1-0.9-0.2-1.3c0-0.1,0-0.2,0-0.3c0-0.2,0-0.5-0.1-0.7c-0.1-0.8-0.1-1.7-0.1-2.5c0.2,0,0.3,0.1,0.5,0.1
			c4.2,0.3,9,0.3,12.8-1.9c2.7-1.6,4.2-4.4,3.6-7.5c-1.1-5.5-7.8-8.5-12.8-6.8c-3.6,1.3-6.2,4.3-7.7,7.7c-1.9,4.2-2.3,8.6-1.7,13.2
			c1.3,9,6.6,17.8,13.4,23.7c6.9,6,16.3,9.6,25.2,5.8c1-0.4,1.9-0.9,2.8-1.5c1.3-0.8,1.8-2.5,1-3.9
			C463.8,339.2,462,338.6,460.7,339.4z M437.3,305.2c0.1,0,0.2-0.1,0.2-0.1S437.4,305.2,437.3,305.2z M430,303.7
			c0.1-0.2,0.2-0.3,0.4-0.5l0,0c0.5-0.5,0.9-1,1.4-1.4c0.1-0.1,0.2-0.1,0.3-0.2c0.3-0.2,0.5-0.3,0.8-0.4c0.1,0,0.1-0.1,0.2-0.1
			c0.3-0.1,0.5-0.2,0.8-0.2l0,0c-0.1,0-0.2,0,0,0h0.1c0.1,0,0.1,0,0.2,0c0,0-0.1,0-0.2,0c0.2,0,0.4,0,0.7,0c0.1,0,0.2,0,0.4,0
			c0.2,0,0.4,0.1,0.5,0.1c0.2,0.1,0.5,0.1,0.7,0.2c0,0,0,0,0.1,0c0,0,0,0,0.1,0c0.4,0.2,0.7,0.4,1.1,0.7l0.1,0.1
			c0.2,0.2,0.3,0.3,0.5,0.5c0,0,0,0,0.1,0.1c0.1,0.2,0.2,0.3,0.3,0.5c0,0,0,0,0,0.1v-0.1v0.1c0,0.1,0.1,0.1,0.1,0.2
			c0.1,0.1,0.1,0.2,0,0.2c0,0,0,0,0,0.1l0,0c0,0.1,0,0.2,0,0.4v0.1c-0.1,0.1-0.1,0.2-0.2,0.3l-0.1,0.1c-0.1,0.1-0.1,0.1-0.2,0.2
			c-0.2,0.1-0.4,0.3-0.6,0.4c-0.1,0.1-0.2,0.1-0.4,0.2c-0.1,0-0.1,0-0.1,0.1c-0.3,0.1-0.8,0.3-0.8,0.3c-0.8,0.2-1.5,0.4-2.3,0.5
			c0.8-0.1,0,0-0.2,0s-0.4,0-0.7,0.1c-0.5,0-1.1,0.1-1.6,0.1c-1,0-1.9,0-2.9-0.1l0,0c0.2-0.4,0.4-0.9,0.6-1.3
			C429.6,304.4,429.8,304,430,303.7z"/>
		<path d="M434.2,300.7c-0.1,0-0.1,0-0.2,0C434.1,300.7,434.1,300.7,434.2,300.7L434.2,300.7z"/>
		<path d="M530.7,315.9c-2.8-6.3-6-12.8-10.9-17.7c-2.3-2.3-5.2-4.4-8.5-5c-1.6-0.3-3.8,0.7-3.6,2.7c0.5,5.2,1.2,10.3,1.3,15.5
			c0,1.3,0,2.5,0,3.8c0,0.6-0.1,1.2-0.1,1.8c0,0.3-0.1,0.5-0.1,0.8c0,0.1-0.1,0.5-0.1,0.6c-0.2,1.2-0.4,2.3-0.8,3.5
			c-0.4,1.4-0.6,1.9-1.3,3.1c-0.5,1-1.1,1.9-1.8,2.8c-0.1,0.1-0.2,0.3-0.3,0.3c-0.2,0.2-0.3,0.4-0.5,0.6c-0.4,0.5-0.8,0.9-1.2,1.3
			c-0.7,0.7-1.5,1.4-2.2,2.1c-0.2,0.2-0.4,0.3-0.6,0.5l-0.1,0.1c0,0-0.1,0-0.1,0.1c-0.4,0.3-0.8,0.6-1.2,0.8c-0.8,0.5-1.6,1-2.5,1.4
			c-0.2,0.1-0.4,0.2-0.6,0.3c0,0-0.2,0.1-0.3,0.1c-0.4,0.2-0.9,0.3-1.3,0.5c-0.4,0.1-0.8,0.2-1.2,0.3c-0.2,0-1.2,0.2-0.9,0.2
			c-0.3,0-0.6,0.1-1,0.1c-0.2,0-0.4,0-0.6,0c-0.1,0-0.4,0-0.5-0.1c-0.3-0.1-0.5-0.1-0.8-0.2c-0.2-0.1-0.4-0.1-0.5-0.2l0,0
			c-0.3-0.2-0.7-0.3-1-0.6c-0.1-0.1-0.2-0.1-0.3-0.2c-0.1-0.1-0.2-0.1-0.3-0.2c-0.3-0.3-0.6-0.6-0.9-0.9c0,0,0,0-0.1-0.1
			c0,0,0,0,0-0.1c-0.1-0.2-0.3-0.4-0.4-0.6c-0.3-0.4-0.5-0.8-0.7-1.3c0,0-0.2-0.4-0.2-0.5c-0.1-0.3-0.2-0.6-0.3-0.9
			c-0.4-1.1-0.6-2.2-0.8-3.4c-0.1-0.6-0.2-1.3-0.3-2l0,0c0-0.1,0-0.2,0-0.3c0-0.4-0.1-0.8-0.1-1.3c-0.3-3.3-0.4-6.7-0.3-10
			c0-0.8,0.1-1.7,0.2-2.5c0-0.3,0.1-0.7,0.1-1c0-0.2,0-0.4,0.1-0.6c0-0.1,0-0.3,0.1-0.5c0.2-1.6,0.5-3.2,0.9-4.8
			c0.2-0.9,0.5-1.7,0.8-2.6c0.1-0.4,0.3-0.8,0.5-1.2l0,0c0.1-0.2,0.2-0.4,0.3-0.6c0.3-0.7,0.7-1.3,1.1-1.9c0.1-0.2,0.3-0.5,0.4-0.7
			c0,0,0.1-0.1,0.2-0.1c0.1-0.2,0.3-0.3,0.4-0.5c0.2-0.3,0.5-0.5,0.8-0.8c0.1-0.1,0.2-0.2,0.3-0.3l0,0c0.3-0.2,0.6-0.4,0.9-0.5
			c0.1-0.1,0.3-0.1,0.4-0.2l0,0c0.3-0.1,0.7-0.2,1-0.3c0.1,0,0.3-0.1,0.5-0.1l0,0l0,0c0.4,0,0.8,0,1.1,0c0.3,0,1.6,0.2,0.6,0
			c1.5,0.2,3.1-0.4,3.5-2c0.4-1.3-0.5-3.3-2-3.5c-3.7-0.5-7.1,0.2-10,2.5c-2.6,2.1-4.2,5.2-5.3,8.3c-1.3,3.5-1.9,7.2-2.3,10.9
			c-0.4,3.6-0.4,7.3-0.2,11c0.4,6.8,1.5,16,8.5,19.2c8.4,3.9,18-2.6,23.2-9c1.8-2.2,3.2-4.5,4.2-7.2c1-2.6,1.4-5.4,1.7-8.2
			c0.5-5.4-0.1-10.8-0.7-16.1c0,0,0,0,0.1,0c-0.3-0.2,0.4,0.3,0.5,0.4c0.3,0.3,0.6,0.5,0.9,0.8c0.5,0.5,1,1,1.5,1.5
			c0.2,0.3,0.5,0.6,0.7,0.8c0.1,0.1,0.2,0.2,0.3,0.3c0,0.1,0.1,0.1,0.2,0.2c1,1.3,1.9,2.7,2.8,4.1c1.8,2.9,3.3,6,4.7,9.1
			c0.4,0.8,0.7,1.6,1,2.4v0.1l0,0c0.1,0.2,0.2,0.4,0.2,0.6c0.2,0.5,0.4,0.9,0.6,1.4c0.6,1.5,1.2,3,1.8,4.6c1.1,2.9,2.1,5.9,3.1,8.9
			c0.5,1.5,2,2.4,3.5,2c1.4-0.4,2.5-2,2-3.5C535.5,328.1,533.3,321.9,530.7,315.9z"/>
		<path d="M549.7,298.9L549.7,298.9L549.7,298.9C549.6,298.9,549.6,298.9,549.7,298.9C549.6,298.9,549.6,298.9,549.7,298.9
			c-0.1,0-0.1,0.1-0.1,0.2c0,0,0,0,0.1,0c0,0.1-0.1,0.1-0.1,0.1l0,0C549.6,299.1,549.6,299.1,549.7,298.9c0,0,0.1,0,0.1-0.1
			C549.7,298.8,549.7,298.8,549.7,298.9L549.7,298.9z"/>
		<path d="M562.4,325.4c-2.3-3.8-4.8-7.6-7-11.5c-1.1-1.9-2.2-3.8-3.2-5.8c-0.5-0.9-0.9-1.8-1.3-2.7c0,0,0,0,0-0.1l0,0
			c-0.1-0.2-0.2-0.4-0.2-0.6c-0.2-0.4-0.3-0.8-0.5-1.3c-0.3-0.8-0.5-1.5-0.6-2.3c0-0.1,0-0.2-0.1-0.4l0,0c0-0.3,0-0.7,0-1
			c0-0.1,0-0.2,0-0.3c0-0.1,0-0.2,0.1-0.3c0,0,0,0-0.1,0.1l0,0c0,0,0,0,0.1-0.1c0,0,0,0,0-0.1l0,0c-0.1,0-0.1,0,0.1-0.2l0,0l0,0l0,0
			l0,0c0,0,0,0,0.1,0l0,0l0,0l0,0c0,0,0.1-0.1,0.2-0.1h-0.1l0.1-0.1c0.1,0,0.2-0.1,0.3-0.1l0,0l0.1-0.1c0,0,0,0-0.1,0.1
			c0.2-0.1,0.3-0.1,0.5-0.1c0.1,0,0.1,0,0.2,0c0.2,0,0.4,0,0.5,0c0.5,0,1,0,1.5,0c0.3,0,0.6,0,0.8,0.1c0.1,0,0.2,0,0.4,0
			c0,0,0,0,0.1,0c0.7,0.1,1.4,0.2,2.1,0.4c1.7,0.4,3.4,0.9,5.1,1.4c1.5,0.5,3.1-0.6,3.5-2c0.4-1.5-0.5-3-2-3.5c-3-1-6-1.7-9.1-2.1
			c-2-0.2-4.1-0.1-6,0.7c-3.8,1.6-4.6,5.5-3.8,9.3c0.8,4,2.9,7.9,4.8,11.4c2.3,4.1,4.8,8.1,7.3,12c1.2,1.9,2.4,3.9,3.5,5.9
			c0.2,0.3,0.4,0.7,0.5,1c-6,0.8-12.2,1.1-18.1,2.7c-3.5,1-2,6.4,1.5,5.5c7-1.9,14.3-1.9,21.4-3.3c1.5-0.3,2.4-2.1,2-3.5
			C566.1,331.2,564.1,328.2,562.4,325.4z M549.9,298.6C549.9,298.7,549.9,298.7,549.9,298.6C549.8,298.7,549.8,298.7,549.9,298.6z
			 M549.8,298.7L549.8,298.7L549.8,298.7L549.8,298.7z M549.4,299.3L549.4,299.3L549.4,299.3L549.4,299.3z"/>
		<path d="M549.9,298.7c0.1,0,0.2-0.1,0.3-0.2l0,0C550.2,298.6,550,298.7,549.9,298.7z"/>
		<path d="M625.5,298.2c-1.4-0.4-3.2,0.5-3.5,2c-1.5,7.6-2.9,15.3-4.4,22.9c-8.4-5.6-15.7-12.6-24.4-17.8c-1.3-0.8-3.1-0.3-3.9,1
			c-0.8,1.3-0.3,3.1,1,3.9c8.9,5.3,16.4,12.5,25,18.2c0.3,0.2,0.7,0.3,1.1,0.4c-2.1,10-4.6,20-8.5,29.5c-0.1,0.1-0.1,0.2-0.2,0.4
			l0,0c0,0,0,0.1-0.1,0.1c-0.1,0.3-0.2,0.6-0.4,0.8c-0.3,0.6-0.5,1.2-0.8,1.8c-0.5,1.1-1.1,2.3-1.7,3.4c-0.6,1.1-1.2,2.2-1.9,3.2
			c-0.3,0.5-0.6,1-1,1.5c-0.2,0.2-0.3,0.4-0.5,0.7c-0.1,0.1-0.7,0.9-0.3,0.4c-0.9,1.2-1.2,2.8,0,4c1,1,3.1,1.2,4,0
			c6.1-7.8,9.6-17.2,12.4-26.6c3-10.2,5.1-20.6,7.1-31c1-5.1,1.9-10.2,2.9-15.3C627.8,300.2,627.1,298.6,625.5,298.2z"/>
		<path d="M644.2,343.2c-0.1-0.4-0.3-0.7-0.4-1.1c-0.1-0.3-0.4-0.6-0.6-0.8l0,0c0,0,0,0-0.1-0.1l0,0l0,0c-0.1-0.1-0.4-0.3-0.5-0.4
			l0,0l0,0l-0.7-0.3l0,0c-0.2-0.1-0.5-0.1-0.8-0.1c0,0-0.7,0.1-0.8,0.1l0,0c-0.1,0-0.6,0.3-0.7,0.3l0,0c-0.5,0.3-0.8,0.6-1.1,1.1
			l0,0c-0.1,0.2-0.2,0.5-0.3,0.7v0.1c0,0.1-0.1,0.2-0.1,0.4c-0.1,0.4-0.1,0.9-0.2,1.3c0,0.3,0,0.5,0,0.8c0,0.4,0.1,0.8,0.2,1.1
			c0.1,0.4,0.3,0.7,0.6,0.9c0.3,0.3,0.6,0.5,0.9,0.6c0.3,0.2,0.7,0.3,1.1,0.2c0.2,0,0.4-0.1,0.6-0.1c0.1,0,0.1,0,0.2,0
			c0.4,0.1,0.8,0.1,1.1-0.1c0.2-0.1,0.5-0.2,0.7-0.3c0.4-0.3,0.8-0.6,1-1c0.1-0.2,0.2-0.5,0.3-0.7c0.1-0.5,0.1-1,0-1.5
			C644.4,344.1,644.3,343.6,644.2,343.2z"/>
		<path d="M794,266.6c-0.5-1.4-1.9-2.4-3.5-2c-1.4,0.4-2.5,2.1-2,3.5c4.6,12.3,6.2,25,6.8,38c0.1,2.7,0.2,5.4,0.2,8.1
			c-8.7-1.6-17.6-1-26.4,0.2c-9,1.3-17.7,3.2-26.8,3.6c-0.8,0-1.7,0.1-2.5,0.1c-0.4-8.8-0.9-17.5-1.1-26.3
			c-0.2-7.8-0.4-15.6-0.3-23.4c0-1.5-1.3-2.8-2.8-2.8c-1.6,0-2.8,1.3-2.8,2.8c-0.1,13.8,0.4,27.6,1,41.3c0.1,2.7,0.3,5.4,0.4,8.1
			c-2.3-0.2-4.6-0.5-6.9-1c-1.5-0.3-3.1,0.5-3.5,2c-0.4,1.4,0.5,3.2,2,3.5c2.9,0.6,5.8,1,8.7,1.2c0.5,9.1,0.9,18.2,1.2,27.3
			c0.3,7.8,0.5,15.6,0.5,23.4c0,1.5,1.3,2.8,2.8,2.8s2.8-1.3,2.8-2.8c0-13.8-0.6-27.6-1.2-41.3c-0.1-3.1-0.3-6.1-0.5-9.2
			c4.7-0.1,9.3-0.6,14-1.2c9.1-1.3,17.8-3.2,26.8-3.6c5-0.2,9.8,0.1,14.6,1.1c-0.1,8.9-0.4,17.8-0.8,26.7
			c-0.3,7.3-0.6,14.6-0.6,21.9c0,1.5,1.3,2.8,2.8,2.8s2.8-1.3,2.8-2.8c0-13.3,0.9-26.5,1.2-39.8c0.4-13.7,0.2-27.4-1.8-41
			C798.2,280.6,796.6,273.5,794,266.6z"/>
		<path d="M875.5,358.9c-0.3,0-0.6-0.1-1-0.1h-0.2c0.1,0,0.1,0,0.2,0c-0.2,0-0.3,0-0.5-0.1c-0.8-0.1-1.6-0.3-2.3-0.4
			c-1.6-0.3-3.2-0.7-4.8-1.2c-1.7-0.5-3.4-1-5.1-1.7c-0.4-0.1-0.8-0.3-1.2-0.5c-0.1-0.1-0.7-0.3-0.8-0.3c-0.8-0.4-1.6-0.7-2.5-1.1
			c-1.6-0.8-3.1-1.6-4.6-2.6c-0.7-0.4-1.4-0.9-2-1.4c-0.1-0.1-0.6-0.5-0.7-0.5c-0.3-0.3-0.7-0.5-1-0.8c-1.2-1.1-2.3-2.2-3.4-3.4
			c0,0,0,0,0-0.1c0,0,0,0,0-0.1c-0.1-0.1-0.2-0.2-0.3-0.4c-0.2-0.3-0.4-0.6-0.6-0.9c-0.4-0.6-0.7-1.2-1-1.8c0,0-0.2-0.6-0.3-0.7
			c-0.1-0.3-0.2-0.7-0.3-1s-0.2-0.7-0.2-1c0-0.1,0-0.2,0-0.3c0,0.1,0-0.3,0-0.4c-0.1-0.7-0.1-1.3,0-2c0-0.4,0-0.8,0.1-1.1
			c0-0.2,0.1-0.6,0.1-0.8c0.2-1.5,0.6-3,1-4.5c0.2-0.8,0.5-1.6,0.8-2.4c0.1-0.2,0.2-0.5,0.3-0.7c2.1-1.1,4.2-2,6.3-2.9
			c0.1,0,0.2-0.1,0.2-0.1c0.2-0.1,0.5-0.2,0.7-0.3c0.5-0.2,0.9-0.4,1.4-0.6c0.9-0.4,1.7-0.7,2.6-1.1c1.9-0.8,3.7-1.6,5.6-2.4
			c6.2-2.9,12.3-7.1,14.2-14.1c1.3-4.8,0.6-9.9-0.8-14.6c-0.4-1.4-2-2.6-3.5-2c-6.4,2.5-11.8,7.4-16.4,12.3
			c-5.5,5.9-10.4,12.6-13.9,19.9c-0.3,0.6-0.5,1.1-0.8,1.7c-1,0.5-1.9,1-2.8,1.6c-1.3,0.8-1.8,2.5-1,3.9c0.3,0.5,0.8,0.9,1.4,1.2
			c-1.1,4.1-1.6,8.3-0.5,12.4c2,7.1,8.2,12.3,14.4,15.7c7.2,4,15.3,6.6,23.5,7.4c1.5,0.2,2.8-1.4,2.8-2.8
			C878.3,360.1,877,359.1,875.5,358.9z M850.8,315.5c2.2-3.4,4-5.8,6.6-8.7c2.6-3,5.4-5.8,8.5-8.3c0.2-0.1,0.4-0.3,0.5-0.4
			c0,0,0.2-0.2,0.3-0.2c0.3-0.2,0.6-0.5,0.9-0.7c0.7-0.5,1.4-1,2.1-1.4c0.2-0.2,0.5-0.3,0.7-0.4c0.1,0.5,0.2,0.9,0.2,1.4
			c0,0.1,0.1,0.4,0.1,0.4c0,0.3,0.1,0.6,0.1,1c0.1,0.8,0.1,1.7,0,2.5c0,0.4-0.1,0.8-0.1,1.3l0,0l0,0c-0.1,0.3-0.1,0.5-0.1,0.8
			c-0.2,0.7-0.4,1.5-0.6,2.2c0,0,0,0.1-0.1,0.1c0,0,0-0.1,0.1-0.1c-0.1,0.2-0.2,0.3-0.2,0.5c-0.2,0.3-0.3,0.6-0.5,1
			c-0.2,0.3-0.4,0.6-0.6,0.9c-0.1,0.1-0.2,0.3-0.3,0.4l0,0c-0.5,0.6-1,1.2-1.6,1.7c-0.3,0.2-0.5,0.5-0.8,0.7
			c-0.1,0.1-0.6,0.5-0.6,0.4c-0.6,0.4-1.2,0.8-1.8,1.2c-1.4,0.9-2.8,1.6-4.3,2.3c-0.8,0.4-1.5,0.7-2.3,1.1c-0.4,0.2-0.8,0.4-1.2,0.5
			c-0.2,0.1-0.4,0.2-0.6,0.3c-0.3,0.1-0.3,0.1,0.1,0c-0.1,0.1-0.3,0.1-0.4,0.2c-1.7,0.7-3.4,1.4-5.1,2.1c-0.3,0.1-0.6,0.2-0.8,0.4
			C849.5,317.5,850.1,316.5,850.8,315.5z"/>
		<path d="M874.2,358.8C873.9,358.8,874.1,358.8,874.2,358.8L874.2,358.8z"/>
		<path d="M869.9,305C869.7,305.4,869.8,305.2,869.9,305L869.9,305z"/>
		<path d="M921.5,267.4c0-1.5-1.3-2.8-2.8-2.8s-2.8,1.3-2.8,2.8c0,9.5,2.1,18.7,3.5,28.1c0.2,1.5,2.1,2.4,3.5,2c1.6-0.4,2.2-2,2-3.5
			C923.5,284.9,921.5,276.5,921.5,267.4z"/>
		<path d="M969.1,339.4c0,0,0,0.1,0.1,0.3l0,0C969.2,339.6,969.1,339.5,969.1,339.4z"/>
		<path d="M976.4,285.4c-0.3,0.2-0.7,0.4-1,0.5c-0.1,0.1-0.5,0.2-0.7,0.3c-0.7,0.3-1.4,0.5-2.1,0.8c-1.7,0.6-3.5,1.1-5.3,1.7
			c-3.6,1.2-7.3,2.6-10.2,5.1c-6.7,5.6-4.1,15.3-1,22c1.6,3.6,3.7,6.9,5.7,10.3c1.8,3.1,3.5,6.2,5.2,9.3c0.7,1.3,1.4,2.6,2,3.9v0.1
			c0,0,0.1,0.2,0.1,0.3l0,0c0,0,0,0.1,0.1,0.1c0,0,0-0.1-0.1-0.1c0.1,0.3,0.2,0.5,0.3,0.8c0.1,0.2,0.1,0.5,0.2,0.7
			c0,0.1,0,0.2,0.1,0.3c0,0.2,0,0.4,0,0.5s-0.1,0.2-0.1,0.3s-0.1,0.1-0.1,0.2l0,0c-0.1,0.1-0.2,0.2-0.3,0.3s-0.2,0.2-0.3,0.3
			c0,0-0.4,0.3-0.6,0.4c-0.3,0.2-0.7,0.4-1,0.6c-0.4,0.2-0.8,0.4-1.2,0.6H966c0,0-0.1,0-0.1,0.1c-0.3,0.1-0.6,0.2-0.9,0.3
			c-1.2,0.4-2.4,0.8-3.6,1.2c-2.5,0.7-5.1,1.2-7.6,1.6c-2.3,0.3-5.2,0.6-7.7,0.7c-2.7,0.1-5.4,0.2-8.1,0c-1.5-0.1-2.8,1.4-2.8,2.8
			c0,1.6,1.3,2.8,2.8,2.8c4.8,0.2,9.7,0,14.5-0.6s9.6-1.5,14.1-3.2c3-1.1,6.4-2.5,8-5.5c1.4-2.6,0.7-5.5-0.4-8
			c-1.3-3.1-3.1-5.9-4.7-8.9c-1.7-3.2-3.6-6.2-5.4-9.3c-1-1.8-2-3.6-2.9-5.4c-0.2-0.4-0.4-0.8-0.6-1.3c0,0-0.2-0.6-0.2-0.5
			c0-0.1-0.1-0.2-0.1-0.4c-0.4-1-0.8-2-1-3c-0.2-0.8-0.4-1.7-0.6-2.5c0-0.1,0-0.1,0-0.1v-0.1c0-0.2,0-0.4-0.1-0.6c0-0.5-0.1-1,0-1.6
			c0-0.3,0-0.6,0.1-1c0-0.1,0.1-0.7,0.2-0.8c0.1-0.4,0.2-0.7,0.3-1.1c0-0.1,0-0.1,0-0.1s0,0,0-0.1c0.1-0.2,0.2-0.5,0.4-0.7
			c0.1-0.2,0.2-0.3,0.3-0.4l0.1-0.1c0,0,0,0,0.1-0.1c0.3-0.3,0.6-0.6,0.9-0.9c0.1-0.1,0.2-0.2,0.3-0.3c-0.6,0.5,0.2-0.1,0.3-0.2
			c0.4-0.3,0.8-0.5,1.2-0.7c0.8-0.5,1.6-0.9,2.5-1.2c0.1,0,0.4-0.1,0.4-0.2c0.2-0.1,0.5-0.2,0.7-0.3c0.5-0.2,1.1-0.4,1.6-0.6
			c3.7-1.3,7.8-2.2,11.3-4.2c1.3-0.8,1.8-2.6,1-3.9C979.5,285.1,977.7,284.6,976.4,285.4z M969.4,342.8c0,0,0.1-0.1,0.2-0.2
			C969.5,342.7,969.4,342.8,969.4,342.8z"/>
		<path d="M1083.4,371.4c-1.5-7.2-3.3-14.4-4.8-21.6c-1-4.8-2.2-9.6-3.7-14.3c-1.5-4.5-3.3-9-6.2-12.8c-0.7-0.9-1.4-1.9-2.3-2.7
			c-1.8-1.9-4.7-0.4-4.9,2c0,0.4-0.1,0.8-0.1,1.3c0,0.3-0.1,0.5-0.1,0.8c0,0,0,0,0,0.1c-0.1,0.9-0.3,1.8-0.5,2.7s-0.4,1.8-0.7,2.6
			c-0.1,0.5-0.3,0.9-0.5,1.4c-0.1,0.2-0.1,0.3-0.2,0.5c0,0-0.1,0.3-0.2,0.4c-0.3,0.8-0.7,1.5-1.2,2.2c-0.2,0.4-0.5,0.7-0.7,1.1
			c0,0.1-0.1,0.1-0.1,0.1l0,0c-0.1,0.2-0.3,0.3-0.4,0.5c-0.3,0.3-0.6,0.6-0.9,0.9c-0.2,0.2-0.4,0.3-0.6,0.5l-0.1,0.1c0,0,0,0-0.1,0
			c-0.1,0.1-0.2,0.1-0.3,0.2c-0.5-0.6-0.9-1.3-1.2-1.9c-0.1-0.2-0.2-0.5-0.3-0.7c0,0-0.2-0.5-0.2-0.6c-0.1-0.3-0.2-0.6-0.3-0.9
			c0-0.1-0.1-0.3-0.1-0.4c0,0,0-0.1,0-0.2c0-0.2-0.1-0.6-0.1-0.6c0-0.3,0-0.6,0-0.9c0-0.2,0-0.5,0.1-0.7c0-0.1,0.1-0.5,0.1-0.6
			c0.1-0.6,0.3-1.1,0.5-1.6c0-0.1,0-0.1,0.1-0.2c0,0,0-0.1,0.1-0.2c0.1-0.3,0.3-0.6,0.4-0.9c0.3-0.5,0.6-1,0.9-1.6
			c0.2-0.3,0.4-0.5,0.5-0.8l0,0c0.1-0.2,0.3-0.3,0.4-0.5c0.9-1,1.8-2,2.8-2.9c0.5-0.5,1-0.9,1.5-1.3c0.3-0.2,0.5-0.4,0.8-0.6
			c0.1-0.1,0.5-0.4,0.6-0.5c1.1-0.8,2.2-1.6,3.4-2.4c2.4-1.6,4.9-3,7.4-4.4c1.4-0.7,1.8-2.6,1-3.9c-0.8-1.4-2.5-1.7-3.9-1
			c-5.2,2.8-10.3,6-14.7,10c-4.3,3.9-8.4,9.4-7.8,15.6c0.4,4.1,2.5,7.6,5.3,10.5c1,1,2.3,0.9,3.4,0.4c5.8-2.5,8.8-8.3,10.2-14.3
			c0.4,0.7,0.7,1.3,1,2c0.1,0.2,0.2,0.5,0.3,0.7c0,0,0.1,0.3,0.2,0.5c0.2,0.6,0.5,1.1,0.7,1.7c1.7,4.4,2.9,9,3.9,13.5
			c0.9,3.8,1.6,7.6,2.5,11.3c0.7,3.2,1.5,6.5,2.3,9.7c0.9,4.1,1.7,8.1,2.4,12.2c0.2,1,0.3,2,0.4,3c0,0.1,0,0.4,0.1,0.4
			c0,0.3,0.1,0.5,0.1,0.8c0.1,0.6,0.1,1.2,0.2,1.8c0.2,2,0.3,3.9,0.4,5.9c0,1.8,0,3.6-0.3,5.3c0,0.2-0.1,0.7-0.1,0.9
			c-0.1,0.4-0.2,0.8-0.2,1.1c-0.2,0.7-0.4,1.3-0.6,1.9c0,0-0.2,0.6-0.3,0.7c-0.1,0.3-0.3,0.5-0.5,0.8c0,0,0,0.1-0.1,0.1
			c0,0,0,0-0.1,0.1c-0.3,0.3-0.5,0.6-0.8,0.9s-0.5,0.5-0.8,0.7c-0.1,0.1-0.3,0.2-0.4,0.4c0.6-0.5,0.1,0-0.1,0
			c-0.8,0.5-1.5,1-2.3,1.5c-0.9,0.6-1.9,1.1-2.9,1.5c-0.5,0.2-1,0.5-1.5,0.7c0,0-0.3,0.1-0.4,0.2c-0.2,0.1-0.5,0.2-0.7,0.3
			c-2,0.8-4.1,1.5-6.1,1.9c-0.5,0.1-1,0.2-1.5,0.3c-0.2,0-0.4,0.1-0.6,0.1c-0.1,0-0.2,0-0.3,0c-0.9,0.1-1.8,0.2-2.7,0.1
			c-0.2,0-0.4,0-0.5,0s-0.2,0-0.3,0c-0.3,0-0.2,0,0.3,0c-0.3,0.1-0.8-0.1-1.1-0.2c-0.1,0-0.2-0.1-0.3-0.1l0,0
			c-0.1-0.1-0.2-0.2-0.3-0.2c-1.1-1-2.8-1-3.9,0.1c-1,1-1.1,3,0,4c2.8,2.5,6.8,2.3,10.3,1.8c4.2-0.6,8.3-2.1,12.1-3.8
			c3.3-1.5,6.8-3.5,9.2-6.3c2.4-2.9,3.3-6.6,3.6-10.2c0.4-4.1,0.1-8.2-0.4-12.3C1085.2,380.6,1084.4,376,1083.4,371.4z
			 M1061.3,324.1C1061.3,324.2,1061.3,324.2,1061.3,324.1L1061.3,324.1z"/>
		<path d="M1102.5,302.2c-4-0.6-7.9-1.9-11.9-2.6c-1.8-0.3-4.2-0.9-5.8,0.2c-1.7,1.1-2.7,3.1-3.2,5c-1,4.4-0.1,9.1,1,13.3
			c1.2,4.8,2.8,9.5,4.7,14.1c1.5,3.8,3.1,7.5,4.9,11.1c0.6,1.2,2.3,1.7,3.6,1.2c1.4-0.6,1.9-1.9,1.6-3.4c-1.3-6.7-2.4-13.5-3-20.3
			c-0.1-1.5-1.2-2.8-2.8-2.8c-1,0-2.1,0.7-2.6,1.6c0-0.1,0-0.1,0-0.2c-0.6-2.2-1.2-4.4-1.6-6.7c0-0.3-0.1-0.5-0.1-0.8
			c0-0.1,0-0.2,0-0.2c-0.1-0.5-0.1-1-0.2-1.5c-0.1-0.9-0.1-1.8,0-2.7c0-0.2,0-0.4,0-0.6l0,0c0.1-0.4,0.1-0.7,0.2-1.1
			c0-0.2,0.1-0.3,0.2-0.5s0.2-0.3,0.3-0.5h0.1c0.2,0,0.3,0,0.5,0c0,0,0,0,0.1,0c0,0,0,0,0.1,0c2.5,0.4,4.9,0.9,7.4,1.5
			c1.8,0.4,3.5,0.9,5.3,1.2c1.5,0.2,3.1-0.4,3.5-2C1104.9,304.3,1104.1,302.4,1102.5,302.2z M1087.2,311.7
			C1087.1,311.6,1087.1,311.5,1087.2,311.7L1087.2,311.7z M1088,304.5C1088.1,304.5,1088.1,304.4,1088,304.5
			C1088.2,304.3,1088.6,304.1,1088,304.5z"/>
		<path d="M1121.9,305.6c-1.5-0.4-3,0.5-3.5,2c-1.5,4.6-1.7,9.6-1.7,14.5c0,4.6,0.2,9.6-0.6,14c-0.3,1.5,0.4,3.1,2,3.5
			c1.4,0.4,3.2-0.5,3.5-2c0.8-4.9,0.8-9.8,0.8-14.8c0-4.8,0.1-9.2,1.5-13.7C1124.3,307.6,1123.3,306,1121.9,305.6z"/>
		<path d="M1143.6,327.4C1143.6,327.6,1143.6,327.5,1143.6,327.4L1143.6,327.4z"/>
		<path d="M1168.1,317c-6.1,0.8-12.2,1.7-18.2,2.4c0.1-4.7-0.3-9.5-1.2-14.1c-0.7-3.4-1.8-6.7-3.5-9.7c-0.8-1.3-2.6-1.8-3.9-1
			s-1.8,2.5-1,3.9c0.3,0.6,0.6,1.1,0.9,1.7c0.1,0.1,0.2,0.5,0.2,0.5c0.1,0.3,0.2,0.6,0.3,0.9c0.5,1.4,0.9,2.8,1.2,4.2
			c0.2,0.7,0.3,1.5,0.5,2.3c0.1,0.3,0.1,0.7,0.2,1c0,0.2,0.1,0.3,0.1,0.5c0,0.1,0,0.3,0.1,0.4c0.2,1.6,0.3,3.2,0.4,4.8
			c0.1,1.8,0.1,3.5,0.1,5.3c-0.9,0.1-1.7,0.2-2.6,0.3c-1.5,0.2-2.8,1.2-2.8,2.8c0,1.4,1.3,3,2.8,2.8c0.7-0.1,1.5-0.2,2.2-0.2
			c-0.1,0.5-0.1,1-0.2,1.6c0,0,0,0.1,0,0.2v-0.1c0,0.2-0.1,0.4-0.1,0.5c-0.1,0.4-0.1,0.9-0.2,1.3c-0.3,1.6-0.6,3.1-1,4.6
			c-0.4,1.6-0.9,3.1-1.5,4.7c-0.1,0.2-0.1,0.4-0.2,0.5c0,0.1,0,0.1-0.1,0.1l0,0c-0.1,0.3-0.3,0.7-0.5,1c-0.3,0.7-0.7,1.3-1,1.9
			c-0.8,1.3-0.3,3.1,1,3.9s3.1,0.3,3.9-1c3.3-5.6,4.6-12.2,5.4-18.6c0.1-0.5,0.1-0.9,0.1-1.4c6.7-0.8,13.4-1.7,20.1-2.6
			c1.5-0.2,2.4-2.2,2-3.5C1171.2,317.3,1169.7,316.8,1168.1,317z"/>
		<path d="M1199.6,320.3c-2.4,0.1-4.8,0.3-7.2,0.5c-1-4.3-2.2-8.5-3.6-12.6c-1.1-3.3-2.2-6.5-3.5-9.7c-0.6-1.4-1.9-2.4-3.5-2
			c-1.4,0.4-2.6,2.1-2,3.5c2.4,5.9,4.4,11.9,6,18c0.3,1.1,0.6,2.3,0.9,3.4c-3.3,0.4-6.6,0.8-9.9,1.2c-1.5,0.2-2.8,1.2-2.8,2.8
			c0,1.4,1.3,3,2.8,2.8c3.7-0.4,7.4-0.9,11.1-1.3c0.1,0.4,0.2,0.8,0.3,1.2c0.3,1.7,0.6,3.4,0.9,5.1c0.2,1.6,0.4,2.8,0.6,4.5
			c0.3,3.5,0.5,6.9,0.2,10.4c-0.1,1.5,1.4,2.8,2.8,2.8c1.6,0,2.7-1.3,2.8-2.8c0.5-6.7-0.4-13.4-1.6-19.9c-0.1-0.6-0.3-1.2-0.4-1.8
			c2-0.2,4-0.3,5.9-0.4c1.5-0.1,2.8-1.3,2.8-2.8C1202.4,321.6,1201.1,320.2,1199.6,320.3z"/>
		<path d="M1248.8,316.5c1.4-0.7,1.8-2.6,1-3.9c-0.8-1.4-2.5-1.7-3.9-1c-8.5,4.2-14.4,12.2-18.7,20.5c-0.3,0.6-0.6,1.1-0.8,1.7
			c-7.2-5.7-12.6-13.4-17.6-21.1c-0.8-1.3-2.5-1.8-3.9-1c-1.3,0.8-1.8,2.6-1,3.9c5.6,8.8,11.7,17.1,20,23.5
			c-3,6.9-5.4,14.1-7.9,21.2c-0.9,2.5-1.8,5-2.7,7.4c-0.4,1.2-0.9,2.4-1.4,3.5c-0.1,0.2-0.2,0.5-0.3,0.7l-0.1,0.2c0,0.1,0,0.1,0,0.1
			c-0.2,0.6-0.5,1.1-0.8,1.7c-0.6,1.4-0.4,3.1,1,3.9c1.2,0.7,3.3,0.4,3.9-1c3.9-8.6,6.6-17.7,9.9-26.6c1.8-4.9,3.3-8.7,5.5-13.2
			c1.1-2.2,2.2-4.3,3.4-6.4c0.6-1,1.2-1.9,1.8-2.9c0.3-0.5,0.7-0.9,1-1.4c0.1-0.2,0.3-0.4,0.4-0.6c0,0,0.1-0.1,0.2-0.2
			s0.1-0.2,0.1-0.2c1.5-1.9,3.2-3.7,5.1-5.3c0.2-0.2,0.5-0.4,0.7-0.6c0.1-0.1,0.3-0.2,0.3-0.3c0.5-0.3,0.9-0.7,1.4-1
			C1246.6,317.6,1247.7,317,1248.8,316.5z"/>
		<path d="M1258.5,349.5c-0.4-0.4-0.8-0.6-1.3-0.7c-0.9-0.4-1.9-0.8-2.9-1c-1.4-0.3-2.9-0.3-4.3,0.1c-0.7,0.2-1.4,0.7-1.7,1.3
			c-0.1,0.2-0.2,0.5-0.3,0.7c-0.1,0.5-0.1,1,0,1.5c0.4,2.1,2.2,3.7,4.3,4.1c0.8,0.1,1.5,0.1,2.2-0.3c0.4-0.2,0.7-0.6,1-1
			c0.1,0,0.2,0.1,0.3,0.1c0.6,0.2,1.6,0.1,2.2-0.3c0.6-0.3,1.2-1,1.3-1.7c0.2-0.7,0.1-1.5-0.3-2.2
			C1258.8,349.9,1258.6,349.7,1258.5,349.5z"/>
		<path d="M1336.3,295.3c-0.2-8.1-0.3-16.3-0.3-24.4c0-1.5-1.3-2.8-2.8-2.8s-2.8,1.3-2.8,2.8c0,14.3,0.4,28.7,0.8,43
			s0.9,28.7,1.2,43c0.2,8.1,0.3,16.3,0.3,24.4c0,1.5,1.3,2.8,2.8,2.8s2.8-1.3,2.8-2.8c0-14.3-0.3-28.7-0.8-43
			S1336.6,309.6,1336.3,295.3z"/>
		<path d="M1392.3,377.3L1392.3,377.3C1392.3,377.4,1392.4,377.4,1392.3,377.3z"/>
		<path d="M1392.2,373.5c0-0.8,0-1.6,0-2.3c0-0.1,0-0.3,0-0.4c0.1-0.2,0.1-0.4,0.1-0.7c0-0.6-0.1-1.1-0.4-1.6c-0.1-2-0.3-4-0.5-6
			c-0.8-7.2-1.9-14.3-3.2-21.4c-0.8-4.4-1.6-8.9-2.4-13.3c0.5,0,0.9,0,1.4,0c1.5,0,2.8-1.3,2.8-2.8s-1.3-2.8-2.8-2.8
			c-0.8,0-1.5,0-2.3,0c-1.3-7.6-2.3-15.3-2.7-23c-0.4-7.7-0.2-15.6,1-23c0.3-1.5-0.4-3.1-2-3.5c-1.4-0.4-3.2,0.5-3.5,2
			c-2.4,14.2-1.4,28.5,0.7,42.7c0.2,1.6,0.5,3.2,0.7,4.8c-11.6,0-23.2,0-34.8,0c-1.5,0-2.8,1.3-2.8,2.8s1.3,2.8,2.8,2.8
			c11.9,0,23.8,0,35.7,0c1.8,10.5,3.9,21,5.2,31.4c0.5,3.8,0.9,7.7,1.1,11.6c0.1,1,0.1,1.9,0.1,2.9c0,1.1-0.1,2.4,0,3.5
			c0,0,0-0.1,0-0.2c0,0.1,0,0.2,0,0.2c0,0.3,0.1,0.6,0.1,0.8c0.6,2.7,4.8,2.7,5.5,0c0.1-0.2,0.1-0.5,0.1-0.8c0-0.1,0-0.2,0-0.3
			c0,0.1,0,0.2,0,0.3C1392.5,376,1392.3,374.7,1392.2,373.5z"/>
		<path d="M1386.6,377.3C1386.6,377.3,1386.6,377.2,1386.6,377.3C1386.6,377.4,1386.6,377.4,1386.6,377.3z"/>
		<path d="M1453.4,356.3c-0.1,0-0.2,0.1-0.2,0.1c-0.1,0.1-0.3,0.1-0.4,0.2c-0.3,0.1-0.7,0.3-1,0.4c-0.7,0.2-1.4,0.4-2.1,0.6
			c-0.6,0.2-1.3,0.3-2,0.4c-0.2,0-0.3,0.1-0.5,0.1c0,0-0.2,0-0.3,0c-0.1,0-0.3,0-0.3,0c-0.2,0-0.4,0-0.7,0.1c-1.4,0.1-2.8,0.1-4.2,0
			c-0.3,0-0.6,0-0.9-0.1c-0.2,0-0.3,0-0.5-0.1l0,0c-0.7-0.1-1.4-0.2-2.2-0.4c-1.3-0.3-2.6-0.7-3.8-1.2c0,0-0.2-0.1-0.3-0.1
			c-0.1,0-0.2-0.1-0.2-0.1c-0.3-0.1-0.5-0.3-0.8-0.4c-0.7-0.3-1.3-0.7-1.9-1.1c-0.6-0.3-1.1-0.7-1.6-1.1c-0.3-0.2-0.6-0.4-0.8-0.6
			c0,0,0,0-0.1,0c-0.2-0.1-0.3-0.3-0.5-0.4c-1.1-0.9-2.1-1.9-3-2.9c-0.2-0.3-0.5-0.5-0.7-0.8c-0.1-0.1-0.2-0.3-0.3-0.4
			c0.1,0.1,0.3,0.4-0.1-0.1c-0.4-0.6-0.9-1.2-1.3-1.8c-0.8-1.3-1.5-2.6-2.2-4l-0.1-0.2c-0.1-0.2-0.1-0.3-0.2-0.5
			c-0.1-0.4-0.3-0.7-0.4-1.1c-0.3-0.9-0.5-1.7-0.7-2.6c-0.1-0.4-0.2-0.8-0.2-1.2c0-0.2-0.1-0.3-0.1-0.5c0-0.1,0-0.1,0-0.1l0,0
			c-0.1-0.9-0.2-1.7-0.2-2.6c0-0.8,0-1.5,0.1-2.3c0-0.4,0.1-0.7,0.1-1.1c0-0.2,0-0.3,0.1-0.5c0-0.1,0.1-0.4,0.1-0.4
			c0.3-1.6,0.7-3.2,1.2-4.7c0.2-0.5,0.3-0.9,0.5-1.3c0.4,1.1,1.5,1.8,2.7,1.9c6.4,0.6,13.4-1.1,18.6-4.9c4.8-3.5,8.5-9.2,6.4-15.3
			c-1.5-4.1-4.7-7.1-8.3-9.4c-0.8-0.5-2.1-0.5-2.9,0c-11.8,8.2-23.2,20.8-24,35.9c-0.8,13.8,8.9,26.8,21.9,30.8
			c7.1,2.2,14.6,1.5,21.3-1.5c1.4-0.6,1.7-2.7,1-3.9C1456.4,355.9,1454.8,355.7,1453.4,356.3z M1438.5,301.9c0.8,0.6,1.5,1.3,2.3,2
			c0.2,0.2,0.4,0.5,0.6,0.7l0,0l0,0c0.1,0.1,0.2,0.2,0.2,0.3c0.2,0.3,0.4,0.6,0.5,0.8c0.1,0.1,0.2,0.3,0.2,0.4c0,0,0.1,0.2,0.1,0.3
			c0,0.1,0.2,0.4,0.2,0.5c0.1,0.3,0.2,0.6,0.2,0.8c0.1,0.3,0.1,1,0.1,0.3c0,0.3,0,0.5,0,0.8s0,0.5,0,0.8l0,0v0.1
			c-0.1,0.3-0.1,0.5-0.2,0.8c0,0.1-0.2,0.5-0.2,0.6c-0.2,0.4-0.3,0.7-0.6,1.1c-0.1,0.2-0.3,0.5-0.5,0.7c0,0,0,0.1-0.1,0.1
			c-0.1,0.1-0.2,0.2-0.2,0.3c-0.4,0.4-0.8,0.8-1.2,1.2c-0.2,0.2-0.5,0.4-0.7,0.6c-0.1,0.1-0.2,0.1-0.3,0.2l0,0l0,0
			c-1.1,0.8-2.2,1.5-3.4,2.1c-0.3,0.1-0.5,0.3-0.8,0.4h-0.1c-0.1,0-0.2,0.1-0.3,0.1c-0.7,0.3-1.4,0.5-2.1,0.7s-1.5,0.4-2.2,0.6
			c-0.4,0.1-0.8,0.2-1.2,0.2c0,0-0.2,0-0.3,0c-0.1,0-0.4,0-0.4,0c-1.6,0.2-3.2,0.2-4.9,0c-0.3,0-0.7,0-1,0.1
			c0.6-1.2,1.3-2.4,2.1-3.6C1428,310.9,1433.1,305.9,1438.5,301.9z M1428.7,353.2C1428.8,353.3,1429,353.4,1428.7,353.2
			L1428.7,353.2z"/>
		<path d="M1483.5,298.4c0,0.1,0,0.2,0,0.2S1483.5,298.5,1483.5,298.4L1483.5,298.4z"/>
		<path d="M1479.9,286.9c-1.1,1.2-1.1,2.8,0,4c0.2,0.2,0.4,0.4,0.6,0.7c0,0,0.1,0.1,0.2,0.2c0,0,0,0.1,0.1,0.1c0.4,0.5,0.7,1,1,1.5
			s0.6,1,0.8,1.5c0,0.1,0.1,0.2,0.1,0.3l0,0c0.1,0.3,0.2,0.6,0.3,0.9c0.2,0.5,0.3,1.1,0.4,1.6c0.1,0.2,0.1,0.5,0.1,0.7
			c0,0,0,0,0-0.1v0.1l0,0c0,0.2,0,0.2,0,0.1v0.1c0.1,1.2,0.1,2.4,0,3.7c-0.2,1.5,1.4,2.9,2.8,2.8c1.7-0.1,2.7-1.3,2.8-2.8
			c0.6-5.8-1.5-11.3-5.3-15.5C1482.9,285.8,1480.9,285.8,1479.9,286.9z"/>
		<path d="M1548.7,297.4c-8.2,1.4-16.1,4.6-23.1,9.1c-1,0.6-1.8,2-1.3,3.2c2.7,7,7.4,13,11,19.5c0.5,0.8,0.9,1.7,1.3,2.5
			c0.2,0.4,0.4,0.8,0.6,1.2c0.1,0.2,0.1,0.3,0.2,0.5c0,0,0,0,0-0.1c0,0,0,0.1,0.1,0.1l0,0v0.1l0,0c0.6,1.5,1.1,3.1,1.4,4.8l0,0l0,0
			c0,0,0,0,0,0.1s0,0.1,0,0.2c0,0.2,0,0.2,0,0.1c0,0.1,0,0.1,0,0.1c0,0.4,0,0.7,0,1.1c0,0.3,0,0.7-0.1,1c0,0.2-0.1,0.3-0.1,0.5
			c-0.1,0.3-0.2,0.6-0.3,1c-0.1,0.1-0.2,0.4-0.2,0.5c-0.2,0.3-0.4,0.6-0.6,0.9l0,0c-0.1,0.1-0.2,0.3-0.3,0.4c-0.3,0.3-0.6,0.6-1,0.9
			c0,0,0,0-0.1,0.1c0,0-0.1,0-0.1,0.1c-0.2,0.1-0.4,0.3-0.6,0.4c-0.5,0.3-0.9,0.6-1.4,0.8c-0.2,0.1-0.5,0.2-0.7,0.3c0,0,0,0-0.1,0
			s-0.3,0.1-0.3,0.1c-1.3,0.5-2.5,0.9-3.8,1.2c-0.8,0.2-1.6,0.3-2.3,0.5c-0.4,0.1-0.8,0.1-1.2,0.2c-0.2,0-0.4,0.1-0.6,0.1
			c-0.5,0.1,0.1,0-0.5,0.1c-1.5,0.2-2.8,1.2-2.8,2.8c0,1.4,1.3,3,2.8,2.8c5.4-0.7,11.1-1.8,15.5-5.2c2.9-2.3,4.5-5.8,4.5-9.5
			c0-3.9-1.5-7.6-3.2-11.1c-1.8-3.6-3.9-7.1-6-10.5c-1.2-1.9-2.3-3.8-3.4-5.7c-0.5-0.9-1-1.7-1.4-2.6v-0.1c6-3.6,12.6-6,19.6-7.2
			c1.5-0.3,2.4-2.1,2-3.5C1551.8,297.8,1550.2,297.2,1548.7,297.4z"/>
		<path d="M1537.4,333.5c0.2,0.4,0.1,0.4,0.1,0.2C1537.5,333.7,1537.4,333.6,1537.4,333.5L1537.4,333.5z"/>
		<path d="M1538.9,338.5c0,0.1,0,0.3,0,0.4C1538.9,338.8,1538.9,338.7,1538.9,338.5C1538.9,338.6,1538.9,338.6,1538.9,338.5z"/>
		<path d="M1675.6,260.6c-14.8,4.1-30.3,5.3-45.2,9c-4,1-8,2.2-11.9,3.7c-1.5,0.6-2.8,2.2-2.2,3.9c0.5,1.5,2.3,2.9,3.9,2.2
			c9.9-3.9,20.4-5.7,30.9-7.5c2.7,22.6,4.2,45.3,4.7,68.1c0.1,5.5,0.1,11,0.1,16.4c0,1.6,1.4,2.9,2.9,2.9c1.6,0,2.9-1.3,2.9-2.9
			c0-1.5,0-3.1,0-4.6c0-0.1,0-0.2,0-0.2c-0.1-20.8-1-41.6-3-62.4c-0.6-6.1-1.2-12.2-2-18.2c2.7-0.4,5.3-0.9,8-1.4
			c4.2-0.8,8.4-1.7,12.5-2.9c1.6-0.4,2.8-2.3,2.2-3.9C1679,261.2,1677.4,260.1,1675.6,260.6z"/>
		<path d="M1729.8,321.2c-0.1,0.2-0.1,0.3-0.1,0.4C1729.7,321.4,1729.7,321.3,1729.8,321.2L1729.8,321.2z"/>
		<path d="M1710.9,288.3c-0.6-0.5-1.1-1-1.7-1.4c-1.2-1-2.9-1.1-4,0c-1,1-1.2,3,0,4c5.6,4.8,11.1,9.6,16,15c0.7,0.7,1.3,1.5,2,2.3
			c0.3,0.3,0.6,0.7,0.9,1c0.2,0.2,0.3,0.4,0.5,0.6c0,0.1,0.1,0.1,0.1,0.2c1.1,1.5,2.1,2.9,3,4.5c0.4,0.7,0.8,1.5,1.1,2.2
			c0.1,0.2,0.1,0.4,0.2,0.5c0.1,0.4,0.3,0.7,0.4,1.1c0.1,0.3,0.2,0.7,0.2,1c0,0.1,0,0.3,0.1,0.4l0,0c0,0.3,0,0.6,0,1
			c0,0.1,0,0.3,0,0.4c0,0,0,0,0-0.1c0,0,0,0,0,0.1l0,0c0,0.1,0,0.1,0,0.2c0,0.2-0.1,0.2-0.1,0.2c0,0.1,0,0.3-0.1,0.4
			c0,0.2-0.1,0.3-0.1,0.5c0,0.1,0,0.1,0,0.1c-0.1,0.2-0.3,0.6-0.3,0.6c-0.1,0.1-0.2,0.2-0.2,0.4l0,0c-0.2,0.3-0.5,0.5-0.7,0.8
			c-0.1,0.1-0.3,0.2-0.4,0.3l0,0c0,0,0,0-0.1,0c-0.7,0.5-1.5,0.9-2.3,1.3c-0.1,0.1-0.2,0.1-0.3,0.1c-0.2,0.1-0.4,0.1-0.5,0.2
			c-0.5,0.2-1.1,0.4-1.6,0.5c-1.2,0.3-2.3,0.6-3.5,0.8c-0.7,0.1-1.3,0.2-2,0.3h-0.1c-0.2,0-0.4,0-0.6,0.1c-0.4,0-0.8,0.1-1.2,0.1
			c-1.3,0.1-2.6,0.2-3.8,0.2c-0.3,0-0.6,0-0.9-0.1c-0.1,0-0.3,0-0.4,0s-0.4-0.1-0.5-0.1c-0.3-0.1-0.6-0.1-0.9-0.2
			c-1-0.2-1.9-0.5-2.8-0.9c-0.1,0-0.2-0.1-0.2-0.1c-0.2-0.1-0.4-0.2-0.6-0.3c-0.5-0.2-1-0.5-1.4-0.8s-0.8-0.5-1.2-0.8l-0.1-0.1
			c-0.2-0.2-0.4-0.4-0.6-0.5c-0.7-0.6-1.4-1.3-2-2c-0.2-0.2-0.3-0.4-0.5-0.6l0,0c0,0,0,0,0-0.1c-0.3-0.4-0.6-0.8-0.9-1.2
			c-0.5-0.8-1-1.7-1.4-2.5c0-0.1-0.1-0.2-0.1-0.3c-0.1-0.1-0.2-0.4-0.2-0.5c-0.2-0.5-0.3-0.9-0.5-1.4c-0.3-0.9-0.5-1.8-0.6-2.8l0,0
			l0,0c0-0.2,0-0.4-0.1-0.6c0-0.5-0.1-1-0.1-1.4s0-0.9,0-1.3c0-0.2,0.1-0.5,0.1-0.7l0,0v-0.1c0.2-0.9,0.4-1.8,0.7-2.6
			c0.1-0.2,0.2-0.4,0.2-0.7v0.1c0,0,0-0.1,0.1-0.1c0.2-0.4,0.4-0.8,0.7-1.2c0.2-0.4,0.5-0.7,0.7-1.1l0,0l0,0
			c0.2-0.2,0.4-0.4,0.5-0.6c0.3-0.3,0.6-0.6,0.9-0.9c0.2-0.2,0.4-0.3,0.6-0.5c0.1,0,0.1-0.1,0.2-0.1l0,0c0.9-0.6,1.8-1.2,2.8-1.6
			c0.1,0,0.2-0.1,0.3-0.1l0,0c0.2-0.1,0.4-0.2,0.6-0.2c0.6-0.2,1.2-0.4,1.8-0.6c3.5-1,2-6.5-1.5-5.5c-4.8,1.3-9.1,4.1-11.7,8.3
			c-2.2,3.6-3,8-2.5,12.1c1.1,9.2,7.6,17.5,16.7,20c2.4,0.6,4.9,0.9,7.4,0.7c3.2-0.2,6.4-0.6,9.5-1.4c4-1,8.3-2.9,10.5-6.7
			c4.1-7-1.5-15.2-5.8-20.5C1723.2,299,1717.1,293.6,1710.9,288.3z M1724.6,309.8L1724.6,309.8L1724.6,309.8z M1695.6,309.1
			c0,0.1,0,0.3,0,0.3C1695.6,309.3,1695.6,309.2,1695.6,309.1z M1729.5,322.5c0-0.1,0.1-0.2,0.1-0.2
			C1729.5,322.3,1729.5,322.4,1729.5,322.5z"/>
		<path d="M1696.6,305.7C1696.4,306,1696.4,306,1696.6,305.7L1696.6,305.7z"/>
		<path d="M1775,303.1c0.1,0.1,0.1,0.1,0.1,0.1S1775,303.2,1775,303.1C1775,303.2,1775,303.1,1775,303.1z"/>
		<path d="M1776.6,297.4c-3.2-1.9-7.1-2.7-10.8-1.8c-3.5,0.8-6.3,3.2-8.4,6c0-2,0-4,0-5.9c0-1.5-1.3-2.8-2.8-2.8s-2.9,1.3-2.8,2.8
			c0.1,8.1-0.1,16.2,0.5,24.3c0.1,1.5,1.2,2.8,2.8,2.8c1.6,0,2.8-1.3,2.8-2.8l0,0l0,0l0,0c0.1-1.4,0.2-2.8,0.3-4.2v-0.1
			c0-0.1,0-0.2,0.1-0.3c0-0.3,0.1-0.6,0.1-0.9c0.1-0.6,0.2-1.3,0.4-1.9c0.3-1.1,0.6-2.2,1-3.3c0.1-0.2,0.2-0.5,0.3-0.7
			c0-0.1,0-0.1,0-0.1s0,0,0-0.1c0.2-0.5,0.4-1,0.7-1.4c0.4-0.8,0.9-1.6,1.5-2.3c0,0,0,0,0-0.1c0.1-0.1,0.3-0.3,0.4-0.4
			c0.3-0.3,0.6-0.6,0.9-0.9c0.1-0.1,0.3-0.2,0.4-0.4c0.1-0.1,0.1-0.1,0.2-0.1c0.4-0.3-0.2,0.2-0.2,0.2c0.1-0.3,0.8-0.5,1-0.7
			c0.3-0.2,0.6-0.3,0.9-0.5c0,0,0.1-0.1,0.2-0.1c-0.4,0.2,0.2-0.1,0.3-0.1c0.3-0.1,0.6-0.2,0.9-0.3c0.2,0,0.3-0.1,0.5-0.1l0,0
			c0,0,0,0-0.1,0c0,0,0,0,0.1,0s0.1,0,0.2,0c0.2,0,0.2,0,0.2,0c0.2,0,0.4-0.1,0.5-0.1c0.4,0,0.7,0,1.1,0c0,0,0,0,0.1,0s0.2,0,0.3,0
			c0.4,0.1,0.7,0.1,1,0.2c0.4,0.1,0.7,0.2,1,0.3l0,0c0.2,0.1,0.3,0.1,0.5,0.2c0.7,0.4,1.4,0.8,2,1.2c0.1,0,0.1,0.1,0.1,0.1l-0.1-0.1
			l0.1,0.1c0.1,0.1,0.1,0.1,0.1,0.1c0.1,0.1,0.2,0.1,0.3,0.2c0.3,0.3,0.6,0.6,0.9,0.9s0.6,0.6,0.9,1c0.1,0.2,0.3,0.3,0.4,0.5
			c0.1,0.1,0.2,0.3,0.3,0.4c0.1,0.1,0.2,0.2,0.2,0.3c0.1,0.2,0.3,0.4,0.4,0.6c0.3,0.4,0.6,0.9,0.8,1.3c0.3,0.5,0.6,1,0.8,1.5
			c0.1,0.3,0.2,0.5,0.4,0.8c0.1,0.1,0.2,0.4,0.2,0.5c0.5,1.1,0.9,2.3,1.2,3.5c0.4,1.3,0.7,2.7,0.9,4.1c0,0.3,0.1,0.6,0.1,0.9
			c0,0,0.1,0.6,0.1,0.7c0.1,0.8,0.2,1.6,0.2,2.5c0.1,1.5,1.2,2.8,2.8,2.8c1.5,0,2.9-1.3,2.8-2.8
			C1788.4,313.3,1785.2,302.5,1776.6,297.4z M1758.3,315.6C1758.3,315.4,1758.3,315.3,1758.3,315.6L1758.3,315.6z"/>
		<path d="M1767.9,301L1767.9,301c0.2,0,0.3,0,0.4,0C1768.1,301,1768,301,1767.9,301z"/>
		<path d="M1852.2,286.2c-1.6-0.4-3,0.5-3.5,2c-2.5,7.3-6.6,14.3-11,21c-1.3,2-2.6,3.9-3.9,5.9c-1.9-1.4-3.9-2.8-5.8-4.1
			c-1.1-0.8-2.2-1.6-3.3-2.4c-1.2-0.8-1.9-1.4-2.9-2.2c-4.4-3.5-8.1-7.3-10.8-12.1c-0.8-1.3-2.6-1.8-3.9-1s-1.8,2.5-1,3.9
			c5.7,10.1,15.5,16,24.6,22.6c-2.1,3.2-4,6.4-5.8,9.7c-2.2,4.1-4.1,8.3-5.5,12.8c-0.5,1.5,0.5,3.1,2,3.5s3-0.5,3.5-2
			c2.4-7.4,6.3-14.3,10.7-21c4.4-6.8,9-13.3,12.9-20.3c2.2-4.1,4.2-8.3,5.7-12.7C1854.7,288.2,1853.7,286.5,1852.2,286.2z"/>
		<path d="M1881.8,317.4c-0.2-0.7-0.6-1.4-1.3-1.7c-0.2-0.1-0.5-0.2-0.7-0.3c-0.3-0.1-0.6-0.1-1-0.1c-0.1,0-0.2,0-0.3,0
			c-0.2,0-0.4,0-0.6,0.1c-0.1-0.1-0.1-0.1-0.2-0.2c-0.4-0.4-0.9-0.7-1.5-0.9c-0.2-0.1-0.6-0.1-0.8-0.1h-0.1c-0.3,0-0.7,0.1-1,0.1
			c-0.5,0.1-0.9,0.4-1.3,0.7c-0.3,0.3-0.5,0.6-0.6,0.9c-0.2,0.3-0.3,0.7-0.2,1.1c0,0.5,0.1,1,0.4,1.4c0.3,0.3,0.5,0.7,0.8,1
			s0.6,0.5,0.9,0.7s0.6,0.4,1,0.5c0.2,0.1,0.4,0.2,0.6,0.2l0,0l0,0c0.1,0,0.2,0,0.3,0c1.2,0.2,2.3,0.1,3.5-0.1
			c0.4-0.1,0.7-0.3,1-0.5s0.6-0.5,0.7-0.8c0.2-0.3,0.3-0.7,0.3-1.1C1881.9,318.2,1881.9,317.8,1881.8,317.4z"/>
	</g>
</g>
</svg>
