<?xml version="1.0" encoding="utf-8"?>
<!-- Generator: Adobe Illustrator 28.1.0, SVG Export Plug-In . SVG Version: 6.00 Build 0)  -->
<svg version="1.1" id="Layer_1" xmlns="http://www.w3.org/2000/svg" xmlns:xlink="http://www.w3.org/1999/xlink" x="0px" y="0px"
	 width="1000px" height="1000px" viewBox="0 0 1000 1000" enable-background="new 0 0 1000 1000" xml:space="preserve">
<path d="M558.988,463.246c1.62-7.596,0.948-15.325,0.782-22.997c-0.144-6.642-0.943-13.267-1.317-19.908
	c-0.144-2.566,0.162-5.155,0.119-7.732c-0.031-1.849,0.552-3.067,1.828-4.603c2.154-2.592,3.411-5.934,5.016-8.977
	c1.792-3.398,3.533-6.774,7.781-7.797c0.836-0.201,1.581-1.177,2.167-1.948c2.376-3.131,6.262-3.944,9.466-5.215
	c3.475-1.379,7.774-0.798,11.717-0.856c4.609-0.068,8.931,1.385,13.187,2.987c0.595,0.224,1.205,0.588,1.632,1.05
	c4.773,5.16,8.452,11.139,12.493,16.846c0.333,0.47,0.205,1.24,0.431,1.816c3.062,7.804,5.604,15.872,9.361,23.328
	c5.278,10.474,11.497,20.472,17.25,30.709c5.444,9.686,10.801,19.422,16.206,29.13c2.662,4.781,5.28,9.589,8.056,14.303
	c0.885,1.503,2.217,2.742,3.859,4.723c0.375-4.81,0.87-8.786,0.953-12.77c0.135-6.406,0.19-12.825-0.077-19.224
	c-0.288-6.89-1.076-13.758-1.478-20.645c-0.375-6.413-0.286-12.86-0.836-19.254c-0.861-10.02-1.949-20.025-3.196-30.004
	c-1.258-10.067-2.086-20.192-4.491-30.112c-1.359-5.605-2.526-11.372-2.741-17.106c-0.193-5.133,0.855-10.35,1.691-15.475
	c0.801-4.91,2.897-9.386,5.681-13.515c0.37-0.548,0.782-1.095,1.274-1.53c2.676-2.364,5.208-4.948,8.133-6.954
	c2.381-1.633,4.375-3.738,8.157-3.461c3.174,0.233,6.538-2.083,9.808-3.294c0.391-0.145,0.934-0.721,1.055-0.63
	c2.821,2.123,4.06-0.043,5.463-2.728c0.472,1.488,0.722,2.277,0.972,3.066c0.547-0.734,1.616-1.52,1.549-2.194
	c-0.265-2.69,0.989-4.259,3.003-5.783c1.261-0.954,2.033-2.563,2.997-3.898c1.855-2.568,3.198-6.28,5.691-7.367
	c1.982-0.864,3.708-2.888,6.17-2.754c0.464-3.365,5.275-0.441,5.682-3.915c0.004-0.033,0.332-0.103,0.437-0.039
	c3.31,2.058,6.638-0.44,10.093-0.016c3.277,0.402,6.44-0.066,8.736,2.896c2.138-0.907,3.643,2.021,6.382,0.517
	c2.683-1.473,0.348,2.075,1.859,2.901c0.776-0.562,1.703-1.233,3.416-2.474c-0.463,2.112-0.726,3.312-1.032,4.708
	c1.606,0.174,4.576-2.375,4.283,1.848c1.22,0.047,2.476-0.068,3.651,0.187c1.066,0.232-1.427,3.009,1.469,2.315
	c0.423-0.101,0.861-0.137,1.66-0.259c-0.351,1.521-0.638,2.76-1.016,4.4c1.105,0,2.015,0.008,2.924-0.003
	c0.505-0.006,1.009-0.046,1.513-0.07c-0.398,0.533-0.74,1.125-1.216,1.577c-0.29,0.275-0.786,0.333-1.601,0.647
	c1.389,0.918,2.434,1.608,3.812,2.519c-1.285,0.195-2.123,0.322-4.115,0.624c1.65,0.866,2.307,1.2,2.954,1.553
	c2.262,1.233,3.197,2.872,2.752,5.664c-0.367,2.304-1.744,5.28,1.78,6.832c0.3,0.132-0.262,1.739,0.122,2.252
	c1.319,1.762-0.523,4.063,0.028,4.755c1.569,1.969,0.938,3.077-0.387,4.485c-0.174,0.185-0.216,0.751-0.066,0.94
	c0.572,0.719,1.247,1.355,1.884,2.022c-0.792,0.038-1.592,0.026-2.369,0.154c-0.167,0.027-0.375,0.566-0.356,0.855
	c0.206,3.062,0.208,6.165,0.744,9.172c1.081,6.071,2.105,12.191,3.812,18.1c1.741,6.025,3.829,12.036,6.562,17.667
	c4.125,8.5,7.946,17.218,13.759,24.809c2.672,3.49,5.299,6.961,9.146,9.335c1.01,0.623,1.34,2.357,2.352,2.969
	c0.882,0.534,2.285,0.206,3.457,0.259c-0.72,1.61-0.394,1.838,1.423,1.618c2.755-0.334,5.58-0.087,8.53-0.087
	c0-0.389,0-1.31,0-2.264c0.365,0,0.733-0.117,0.922,0.018c3.013,2.157,3.003,2.162,4.13-0.945c0.501-1.38,1.027-2.751,1.589-4.252
	c2.322,0.244,4.809,0.633,5.056-2.807c3.611-1.952,5.258-5.811,6.039-9.086c1.189-4.988,5.323-9.106,4.305-14.663
	c4.434-6.983,5.434-15.356,9.356-22.639c2.942-5.464,4.296-11.793,6.272-17.766c3.853-11.649,7.913-23.24,11.372-35.007
	c2.311-7.863,4.069-15.931,5.454-24.013c1.378-8.035,2.66-16.202,2.66-24.311c0-4.619,0.472-9.24,0.558-13.835
	c0.103-5.505,2.334-10.933,3.079-16.47c1.083-8.056,5.055-14.523,10.225-20.416c2.157-2.459,4.469-4.852,7.038-6.855
	c1.526-1.189,3.732-1.469,5.558-2.318c2.731-1.269,5.817-0.7,8.678-2.424c1.809-1.09,5.699-0.326,7.778,0.992
	c3.419,2.167,7.876,2.36,10.577,5.785c0.738,0.936,1.873-1.388,3.448,0.828c2.998,4.216,7.546,9.968,9.288,14.756
	c0.929,2.552,1.58,4.825,1.449,7.846c-0.166,3.815,0.295,7.736-0.033,11.706c-0.181,2.183-0.13,3.906-1.571,5.818
	c-0.902,1.195-0.358,3.419-0.65,5.15c-0.621,3.683-3.086,6.928-2.516,10.959c0.075,0.529-1.99,1.134-2.3,1.983
	c-1.667,4.575-3.124,9.227-4.587,13.874c-0.574,1.824-1.568,3.78-1.34,5.542c0.614,4.749-2.27,8.346-3.334,12.504
	c-1.794,7.01-3.964,13.871-6.315,20.699c-3.809,11.062-7.405,22.199-11.3,33.23c-1.545,4.376-3.844,8.483-5.453,12.841
	c-2.402,6.506-4.525,13.115-6.716,19.697c-2.143,6.435-4.43,12.832-6.271,19.354c-1.735,6.145-2.817,12.471-4.475,18.64
	c-1.272,4.731-3.01,9.336-4.507,14.007c-0.396,1.235-0.879,2.498-0.948,3.768c-0.1,1.844,0.441,3.752,0.166,5.549
	c-0.402,2.627-1.087,5.04-0.578,7.894c0.345,1.933-0.999,4.643-2.418,6.291c-1.663,1.931-2.123,3.796-2.492,6.187
	c-0.35,2.265-2.054,4.311-3.096,6.484c-0.388,0.81-1.092,2.159-0.792,2.494c1.652,1.849,0.252,2.746-0.733,4.1
	c-1.365,1.875-3.696,3.4-2.63,6.473c0.292,0.841-0.397,2.489-1.166,3.126c-1.279,1.058-1.788,1.766-1.514,3.639
	c0.182,1.243-1.859,2.658-2.325,4.175c-2.214,7.2-4.28,14.447-6.291,21.707c-0.971,3.507-1.54,7.128-2.572,10.614
	c-4.146,14.007-8.557,27.937-12.56,41.984c-2.54,8.912-4.446,18.002-6.794,26.972c-2.268,8.668-4.925,17.237-7.07,25.933
	c-2.455,9.952-4.552,19.993-6.769,30.003c-1.936,8.741-3.879,17.481-5.718,26.242c-3.793,18.073-7.146,36.227-8.897,54.628
	c-0.484,5.083-0.564,10.223-0.507,15.333c0.033,2.894-2.025,6.045,0.77,8.705c-1.766,2.484,0.359,5.421-1.116,8.14
	c-1.08,1.99-1.127,4.578-1.471,6.924c-0.644,4.39-3.407,7.831-5.176,11.71c-0.435,0.953-1.801,1.456-2.661,2.25
	c-0.512,0.472-1.202,1.091-1.235,1.675c-0.079,1.426-0.062,2.48-1.949,1.479c-0.265-0.141-1.053,0.317-1.354,0.694
	c-1.655,2.072-1.652,1.892-4.772,2.002c-1.066,0.038-2.578,0.987-3.029,1.93c-0.835,1.748-1.389,3.789-1.44,5.724
	c-0.169,6.326-0.023,12.659-0.075,18.989c-0.019,2.325,0.017,4.703-0.45,6.958c-0.682,3.297-4.065,5.758-7.309,5.772
	c-3.068,0.013-6.434-2.736-7.014-6.097c-0.365-2.114-0.268-4.316-0.285-6.48c-0.068-8.366-0.958-16.627-3.109-24.726
	c-1.12-4.218-3.105-7.883-6.075-11.208c-3.811-4.267-5.81-9.729-6.318-15.267c-0.779-8.493,0.142-16.972,1.855-25.401
	c1.479-7.279,2.018-14.743,3.255-22.077c1.792-10.622,3.641-21.241,5.818-31.789c4.191-20.296,8.353-40.605,13.054-60.786
	c3.607-15.483,8.067-30.766,12.069-46.158c3.509-13.495,6.868-27.028,10.368-40.525c3.266-12.592,6.691-25.142,9.881-37.753
	c0.452-1.785-0.143-3.813-0.053-5.719c0.068-1.455,0.325-2.932,0.724-4.335c0.765-2.686-0.695-3.457-3.094-3.575
	c0.637-0.948,1.164-1.732,1.828-2.72c-0.594-0.235-0.992-0.372-1.373-0.547c-4.953-2.282-10.234-3.686-15.237-5.966
	c-3.714-1.693-7.347-3.49-10.799-5.585c-12.682-7.698-23.445-17.527-32.177-29.561c-3.671-5.059-7.674-9.89-11.119-15.094
	c-3.236-4.888-5.871-10.169-8.898-15.201c-1.341-2.23-2.998-4.27-4.759-6.744c-2.512,2.746-3.39,4.729-2.493,8.498
	c1.267,5.325,0.63,11.102,0.826,16.685c0.416,11.876,0.92,23.751,1.223,35.63c0.097,3.797-0.351,7.605-0.505,11.41
	c-0.254,6.266-0.724,12.538-0.643,18.801c0.118,9.099,0.6,18.195,1.016,27.288c0.248,5.408,0.656,10.808,1.015,16.21
	c0.394,5.928,0.061,12.048,1.522,17.703c0.811,3.141,0.254,6.302,1.448,9.415c1.187,3.096,1.277,6.72,1.308,10.118
	c0.022,2.353,3.458,4.011,1.18,6.66c0.471,0.033,1.081-0.104,1.38,0.141c0.42,0.344,0.609,0.97,0.897,1.476
	c-1.728,0.646-1.25,1.346-0.715,2.901c0.962,2.795,3.113,5.48,1.555,8.957c-0.437,0.975,0.73,2.804,1.407,4.114
	c1.495,2.896,2.62,5.795,1.737,9.145c-0.093,0.354,0.451,0.897,0.739,1.326c0.354,0.529,1.19,1.246,1.06,1.511
	c-2.234,4.554,1.458,9-0.126,13.89c-1.203,3.712-0.981,7.884-3.924,11.027c0.818,2.714-0.822,3.995-2.919,5.01
	c1.908,2.729-0.587,4.108-2.047,5.247c-2.145,1.674-4.37,3.268-5.001,5.937c-0.768,3.251-3.552,1.218-5.085,2.356
	c0.292,0.706,0.586,1.419,0.886,2.144c-3.361,0.654-6.665,1.198-9.917,1.963c-2.396,0.564-4.56,1.949-7.231,0.413
	c-1.084-0.623-3.566,0.592-4.195-0.113c-1.672-1.878-2.78,0.328-3.858,0.048c-2.382-0.617-4.709-1.654-6.868-2.861
	c-2.138-1.195-3.402-3.886-6.362-3.711c-0.779-3.091-4.048-4.006-5.609-6.437c-2.386-3.718-4.969-7.313-7.273-11.081
	c-0.911-1.49-1.49-3.256-1.881-4.974c-0.842-3.687-1.346-7.451-2.202-11.135c-1.399-6.018-3.888-11.583-6.398-17.249
	c-2.686-6.063-5.895-11.789-8.899-17.644c-4.16-8.109-8.424-16.168-12.832-24.145c-5.29-9.571-10.581-19.154-16.255-28.499
	c-3.709-6.109-6.786-12.716-12.208-18.06c-2.391,3.969-1.243,7.973-1.108,11.776c0.309,8.734,1.042,17.451,1.421,26.183
	c0.301,6.938,0.415,13.888,0.46,20.834c0.039,6.112,0.07,12.237-0.259,18.336c-0.455,8.411,0.212,16.732,0.786,25.113
	c0.481,7.015,1.408,14.254-0.621,21.213c-2.176,7.464-5.193,14.618-10.395,20.546c-1.647,1.876-3.319,3.955-6.419,4.04
	c-1.206,0.033-2.599,1.361-3.505,2.437c-1.685,2.002-3.868,1.669-5.996,1.756c-5.355,0.219-10.294-1.554-15.38-2.901
	c-3.926-1.04-5.866-3.971-8.393-6.442c-0.451-0.44-0.49-1.327-0.96-1.719c-7.033-5.853-7.646-14.409-8.463-22.369
	c-0.818-7.977-0.596-16.254,0.572-24.194c1.551-10.546,2.062-21.096,2.466-31.688c0.119-3.131,0.018-6.27,0.018-10.117
	c-3.378,2.816-3.98,6.493-5.529,9.52c-2.785,5.443-5.418,11-7.595,16.707c-2.164,5.674-5.105,10.51-10.074,14.18
	c-1.767,1.305-2.825,3.565-4.225,5.374c-4.703,6.075-9.872,11.723-15.131,17.328c-2.928,3.121-7.204,4.541-9.456,8.301
	c-6.763,0.552-9.621,7.587-15.619,9.416c-0.47,0.143-0.957,0.638-1.354,0.558c-4.537-0.909-7.476,2.765-11.297,3.872l-8.068,0.724
	c-3.526,0.34-7.076,1.111-10.571,0.914c-4.513-0.255-9.186,0.075-13.454-2.114c-3.191-1.636-6.739-2.239-10.052-3.837
	c-9.218-4.446-17.144-10.386-24.021-17.816c-8.383-9.058-15.052-19.328-19.648-30.744c-4.13-10.258-8.078-20.561-10.315-31.554
	c-3.477-17.094-4.099-34.191-2.375-51.431c1.323-13.236,4.052-26.238,8.695-38.708c4.768-12.805,10.636-25.129,18.653-36.292
	c1.981-2.758,4.32-5.256,6.434-7.921c2.563-3.23,5.113-6.473,7.576-9.78c3.392-4.553,7.726-7.562,13.372-8.567
	c0.471-0.084,1.111-0.136,1.352-0.449c3.299-4.293,9.445-3.016,13.03-6.705c2.573,0.518,4.801-0.346,7.187-1.286
	c2.533-0.998,5.54-0.796,8.068-1.803c3.639-1.45,6.992-0.7,10.562-0.022c2.849,0.541,5.838,0.305,8.757,0.528
	c12.41,0.948,23.706,5.38,34.188,11.75c8.522,5.179,15.978,11.78,22.16,19.68C550.471,451.875,554.661,457.542,558.988,463.246z
	 M441.764,546.372c-0.071,10.314,1.983,21.044,5.313,31.089c2.909,8.776,8.093,15.894,15.022,21.612
	c3.219,2.656,7.635,4.559,12.05,2.564c4.454-2.013,9-4.163,12.839-7.12c6.719-5.174,12.073-11.632,14.999-19.83
	c0.833-2.334,1.958-4.57,3.028-6.814c8.61-18.058,12.405-36.952,9.786-56.923c-0.34-2.59-0.6-5.565-2.031-7.54
	c-1.756-2.425-2.919-4.873-3.103-7.673c-0.708-10.759-14.413-20.804-25.659-21.093c-2.632-0.068-5.049,0.679-7.139,2.733
	c-3.399,3.34-7.077,6.411-10.775,9.425c-1.335,1.088-3.076,2.388-4.619,2.372c-4.139-0.043-6.466,2.269-8.019,5.455
	c-2.161,4.434-4.284,8.95-5.762,13.64C443.796,520.644,441.094,533.26,441.764,546.372z"/>
<path d="M98.612,700.27c-3.184,4.285-5.53-0.024-8.218-0.157c0.723-0.209,1.445-0.417,2.816-0.813
	c-2.676-1.24-3.743-4.088-6.81-3.685c0.152-3.17-4.852-1.393-4.622-4.755c0.009-0.133-1.339-0.303-2.02-0.55
	c-1.138-0.412-3.013-0.656-3.248-1.393c-1.726-5.428-8.053-7.091-9.849-12.359c-3.891-1.306-4.279-5.608-6.735-7.908
	c-2.492-2.333-3.209-5.396-5.075-7.9c-2.008-2.695-3.709-5.618-5.57-8.425c-0.145-0.218-0.735-0.372-0.717-0.435
	c1.245-4.169-2.448-6.758-3.28-10.267c-0.83-3.499-2.458-6.883-2.782-10.405c-0.298-3.245-2.417-6.337-0.997-9.756
	c0.172-0.413,0.121-1.046-0.071-1.465c-2.873-6.295,0.311-12.203,0.956-18.307c0.776-7.358,6.02-11.736,10.038-16.97
	c0.768-1.001,2.037-1.69,3.191-2.309c3.428-1.838,6.873-3.657,10.392-5.312c2.314-1.088,4.623-2.235,7.335-0.467
	c0.952,0.621,2.647,0.147,4,0.101c3.936-0.134,7.039,2.906,10.91,2.875c1.835-0.015,1.4,3.824,4.053,2.176
	c1.37-0.852,2.852-1.524,4.843-2.572c-0.216,1.505-0.357,2.495-0.535,3.736c1.622,0.228,4.395-1.912,4.535,1.984
	c0.023,0.654,2.215,1.229,3.543,1.912c-0.29,1.659-0.642,3.677-1.02,5.838c1.671-0.258,2.996-0.298,4.198-0.702
	c0.893-0.3,1.628-1.072,2.433-1.634c1.194,1.937-0.549,2.528-1.543,3.54c-0.671,0.683-1.113,1.592-1.865,2.708
	c1.428-0.302,3.013-1.115,3.57-0.662c1.38,1.121,2.008,2.803,1.724,4.846c-0.217,1.562-1.917,3.481,0.746,4.904
	c0.505,0.27-0.476,2.721,0.089,3.633c0.678,1.096,2.293,1.6,3.463,2.417c0.229,0.16,0.275,0.58,0.399,0.866
	c-0.791,1.188-1.504,2.418-2.374,3.524c-0.92,1.17-1.988,2.223-3.046,3.387c0.771,0.94,1.567,1.909,2.72,3.313
	c-1.544,0.479-2.661,0.826-4.718,1.464c2.025,0.691,3.264,1.114,4.276,1.459c-0.348,1.878-1.678,4.504-0.872,5.868
	c0.987,1.671,2.041,3.584,3.879,5.12c3.868,3.233,7.877,5.889,12.526,7.64c3.054,1.151,5.205-0.407,5.31-3.615
	c0.456-13.972-0.605-27.883-1.541-41.807c-0.738-10.986-1.098-21.998-1.823-32.985c-0.516-7.819-1.423-15.611-2.037-23.425
	c-0.388-4.94-2.872-9.092-5.13-13.216c-1.045-1.908-3.568-3.13-5.609-4.346c-5.262-3.135-9.087-7.818-13.399-11.986
	c-1.767-1.708-3.853-3.086-5.611-4.801c-4.046-3.949-7.667-8.162-10.82-12.982c-3.118-4.766-5.672-9.774-8.267-14.761
	c-2.666-5.124-5.13-10.454-6.821-15.959c-2.115-6.884-4.118-13.967-4.775-21.092c-0.863-9.362-0.491-18.841,1-28.223
	c1.778-11.193,4.704-22.067,10.035-32.051c3.25-6.087,7.349-11.783,11.56-17.277c4.087-5.333,8.481-10.525,13.35-15.135
	c3.682-3.486,6.35-7.341,8.31-11.897c2.057-4.779,2.353-9.843,2.39-14.885c0.041-5.594-0.371-11.194-0.662-16.787
	c-0.223-4.283-0.558-8.561-0.861-12.84c-0.023-0.32-0.376-0.78-0.262-0.921c2.486-3.09,0.454-6.423,0.372-9.577
	c-0.138-5.265-0.922-10.515-1.487-15.766c-0.15-1.391-0.462-2.768-0.759-4.139c-0.318-1.467-0.743-2.912-1.049-4.381
	c-0.122-0.588-0.274-1.325-0.035-1.808c1.697-3.433,1.24-6.965,0.652-10.519c-0.051-0.305-0.269-0.639-0.196-0.9
	c1.383-4.952,1.939-10.396,4.451-14.697c2.461-4.213,6.447-8.039,10.644-10.584c3.706-2.247,7.739-5.02,12.559-4.818
	c2.39,0.1,4.765,0.554,7.145,0.867c3.405,0.448,6.9,0.685,9.273,3.715c5.278,0.477,7.841,4.88,10.57,8.275
	c5.208,6.479,7.05,14.187,7.112,22.722c0.047,6.37-2.205,11.849-3.845,17.591c-3.287,11.508-5.676,23.101-5.433,35.135
	c0.033,1.65-0.177,3.304-0.162,4.955c0.034,3.54,2.002,5.783,5.317,5.593c4.267-0.245,8.509-0.897,12.768-1.307
	c6.264-0.602,12.528-1.503,18.802-1.596c4.774-0.071,9.605,0.68,14.334,1.505c4.064,0.709,7.329,3.342,10.138,6.165
	c2.749,2.762,4.797,6.066,6.203,9.892c1.999,5.438,1.497,10.588,0.676,16.165c-0.98,6.663-4.748,11.139-9.271,15.221
	c-4.536,4.094-9.894,6.731-16.196,7.203c-1.545,0.116-3.428,0.772-4.44,1.852c-1.802,1.923-3.278,1.282-5.272,0.584
	c-3.552-1.242-7.124-1.298-10.93-0.264c-5.079,1.381-10.195,2.401-15.067,4.611c-4.197,1.904-6.368,4.382-6.236,8.909
	c0.259,8.879-0.106,17.834,0.981,26.609c0.589,4.756-1.923,9.77,1.196,14.24c-1.748,2.464-1.114,5.355-1.274,8.046
	c-0.253,4.254-0.217,8.539-0.056,12.801c0.351,9.343,0.737,18.688,1.364,28.015c0.226,3.361,0.988,6.727,1.898,9.981
	c0.416,1.488,1.646,2.837,2.749,4.025c2.154,2.322,4.294,4.721,6.78,6.651c2.528,1.962,4.698,4.828,8.486,4.606
	c0.335-0.02,0.995,0.459,1.006,0.726c0.088,2.165,1.42,1.744,2.824,1.57c1.458-0.181,2.644-0.008,2.151,2.141
	c-0.12,0.522,1.092,1.893,1.789,1.969c4.361,0.472,6.537,4.36,10.031,6.191c3.434,1.8,6.414,4.444,9.743,6.472
	c5.06,3.083,9.356,7.068,13.441,11.252c2.745,2.811,5.071,6.047,7.456,9.191c5.747,7.575,10.156,15.933,13.436,24.809
	c1.391,3.765,1.69,7.933,2.502,11.915c0.197,0.965,0.361,1.954,0.711,2.867c2.026,5.279,1.456,10.757,1.357,16.209
	c-0.027,1.464,0.009,2.981,0.368,4.384c0.31,1.212,2.474,2.537-0.593,3.03c0.179,1.079,0.486,2.155,0.514,3.237
	c0.083,3.252,0.219,6.551-0.65,9.703c-0.67,2.428,1.286,0.862,1.799,1.414c-2.69,3.64-5.467,7.064-3.515,12.284
	c0.539,1.443-1.076,3.865-2.044,5.653c-1.141,2.107-2.86,3.643-1.534,6.668c0.581,1.324-1.113,3.956-2.258,5.671
	c-3.921,5.875-6.25,12.793-11.58,17.743c-0.335,0.311-0.619,0.675-0.988,1.082c0.727,0.552,1.323,1.004,2.3,1.746
	c-2.724,0.331-4.859,0.954-4.915,4.036c-0.015,0.821-0.831,1.837-1.561,2.398c-2.893,2.223-5.99,4.185-8.828,6.472
	c-1.839,1.481-2.765,3.685-5.533,4.542c-2.163,0.67-3.752,3.346-5.465,5.249c-0.717,0.797-1.095,1.9-1.627,2.863
	c-0.538-0.447-1.241-1.379-1.589-1.262c-2.524,0.853-3.831,3.198-5.668,4.913c-0.425,0.396-0.743,2.535-2.005,0.403
	c-0.175-0.296-2.563,0.22-3.449,0.945c-2.055,1.682-4.142,3.029-6.69,3.963c-1.626,0.596-3.548,2.053-2.571,4.604
	c0.113,0.295,0.319,0.673,0.225,0.91c-3.116,7.857-0.334,15.653,0.209,23.47c0.641,9.231,1.175,18.47,1.933,27.691
	c0.447,5.444,1.011,10.899,1.926,16.281c1.363,8.014,0.54,15.652-2.793,23.062c-2.161,4.805-6.479,7.08-10.899,8.868
	c-9.05,3.661-16.588,1.299-23.201-5.99c-4.009-4.419-6.013-9.634-6.88-15.179c-1.252-8.002-1.82-16.118-2.516-24.199
	c-0.952-11.042-1.73-22.098-2.626-33.145c-0.303-3.739-0.933-7.357-2.09-11.015c-1.404-4.439-4.756-5.633-8.344-6.629
	c-1.034-0.287-2.564,1.583-3.78,1.478c-1.286-0.111-2.47-1.4-3.699-2.174c-1.708,3.299-3.727-1.62-5.552,0.179
	c-0.123,0.122-1.175-0.297-1.218-0.559c-0.362-2.213-1.005-1.436-2.513-0.801c-0.982,0.414-3.029-0.71-4.085-1.696
	c-1.574-1.469-3.106-1.305-4.868-0.902c-0.44,0.101-0.931-0.024-1.399-0.045C103.898,701.653,97.761,704.152,98.612,700.27z
	 M174.603,562.065c-1.603,2.229-5.075,4.036-2.24,7.733c0.143,0.187,0.019,0.647-0.084,0.944c-1.387,4.038-0.008,8.102-0.024,12.147
	c-0.019,4.907,0.816,9.81,1.071,14.726c0.373,7.186,0.545,14.383,0.835,21.574c0.097,2.399,0.199,4.806,0.486,7.187
	c0.156,1.298,0.553,2.619,1.103,3.809c1.21,2.618,4.192,3.232,6.164,1.325c4.912-4.753,7.619-10.668,10.074-17.017
	c2.798-7.235,2.504-14.637,3.046-22.002c0.4-5.428-2.366-10.159-4.46-15.04c-1.993-4.645-5.261-8.04-9.032-11.05
	C179.429,564.714,176.936,563.5,174.603,562.065z"/>
<path d="M403.687,414.776c-8.484,1.388-17.017,2.533-25.432,4.256c-4.926,1.009-5.804,3.308-6.007,9.844
	c-0.309,9.93-0.765,19.858-1.352,29.775c-0.529,8.941-1.182,17.879-2.027,26.795c-0.875,9.222-2.118,18.408-3.053,27.625
	c-0.367,3.614-0.429,7.267-0.465,10.904c-0.152,15.436-0.534,30.878-0.256,46.308c0.191,10.601,1.657,21.175,1.957,31.778
	c0.333,11.752,0.591,23.566-0.237,35.275c-0.792,11.194-5.383,21.179-14.037,28.758c-3.193,2.796-6.894,5.012-10.377,7.475
	c-1.429,1.01-2.872,1.632-4.582,0.431c-0.637-0.447-1.529-0.729-2.31-0.742c-7.148-0.125-11.857-4.418-16.203-9.357
	c-2.147-2.44-4.776-4.619-6.298-7.402c-1.692-3.095-2.982-6.677-3.356-10.164c-0.652-6.088-0.69-12.27-0.566-18.404
	c0.1-4.936,1.1-9.853,1.204-14.789c0.202-9.609,0.371-19.239-0.021-28.836c-0.61-14.92-1.481-29.82-0.566-44.759
	c0.823-13.424,1.384-26.866,2.316-40.282c0.723-10.413,2.07-20.784,2.715-31.2c0.582-9.404,0.606-18.844,0.829-28.269
	c0.027-1.151-0.145-2.329-0.387-3.46c-0.681-3.182-2.617-4.827-6.058-4.058c-12.89,2.879-25.864,5.383-38.78,8.151
	c-1.863,0.399-3.52,1.77-5.383,2.152c-1.742,0.357-3.344,0.173-5.244,1.072c-2.725,1.29-6.26,0.878-9.451,1.165
	c-0.65,0.058-1.321-0.081-1.967-0.003c-12.443,1.509-25.197-3.655-33.504-13.748c-3.306-4.016-4.928-8.87-4.884-14.263
	c0.046-5.668,0.667-11.056,3.472-16.182c3.709-6.778,9.536-10.749,16.366-13.688c5.966-2.567,12.514-3.101,18.633-3.014
	c8.617,0.122,17.152-0.606,25.619-1.388c9.423-0.87,18.688-3.449,28.021-5.288c3.417-0.674,6.857-1.256,10.242-2.065
	c5.926-1.416,11.641-3.602,16.561-7.139c3.346-2.405,7.12-2.402,10.678-3.004c4.651-0.788,9.471-0.347,14.214,0.645
	c2.498,0.523,5.224,0.401,7.788,0.087c13.766-1.685,27.519-3.474,41.264-5.324c7.514-1.011,14.842-2.855,21.896-5.665
	c7.156-2.851,14.579-4.983,22.202-5.48c18.049-1.177,29.375,12.282,28.924,28.701c-0.203,7.381-4.179,13.213-9.919,17.808
	c-4.56,3.65-9.483,6.321-14.99,8.61c-9.558,3.972-19.467,6.394-29.367,8.909c-5.731,1.456-11.767,1.709-17.666,2.503
	C403.791,415.477,403.739,415.127,403.687,414.776z"/>
</svg>
